<?xml version="1.0" encoding="utf-8"?>
<!-- Generator: Adobe Illustrator 28.0.0, SVG Export Plug-In . SVG Version: 6.00 Build 0)  -->
<svg version="1.1" id="Warstwa_1" xmlns="http://www.w3.org/2000/svg" xmlns:xlink="http://www.w3.org/1999/xlink" x="0px" y="0px"
	 viewBox="0 0 1114 406" style="enable-background:new 0 0 1114 406;" xml:space="preserve">
<style type="text/css">
	.st0{fill:#FFFFFF;}
</style>
<path class="st0" d="M610.8,18.8c20.4,35.2,40.7,70.5,61.1,105.7c26.4,45.6,52.8,91.3,79.2,136.9c0.3,0.5,0.6,1.1,1.1,2
	c-0.9,0-1.5,0-2.1,0c-35.1,0-70.1,0-105.2,0c-1.4,0-2.3-0.3-3.1-1.7C604.6,197,567.3,132.2,530,67.4c-0.3-0.5-0.6-1-0.8-1.5
	c0.5-0.7,1.3-0.9,1.9-1.3C557,49.7,583,34.8,608.9,19.9c0.5-0.3,1.2-0.4,1.5-1.1C610.5,18.8,610.7,18.8,610.8,18.8z"/>
<path class="st0" d="M431.1,391.4c-5.6-0.9-11.1-2.5-16.1-5.2c-14.3-7.9-23.2-19.9-25.8-36c-3.8-24.2,11.3-47.4,35-53.7
	c14.1-3.8,27.5-2.1,40,5.7c0.3,0.2,0.6,0.5,1,0.3c0.4-0.6,0.2-1.3,0.2-2c0-11.3,0-22.6,0-33.9c0-0.4,0-0.9,0-1.3
	c0-1.6,0-1.7,1.6-1.7c2.7,0,5.3,0,8,0c4,0,8.1,0,12.1,0c1.7,0,1.5,0.1,1.5,1.5c0,2.1,0,4.2,0,6.3c0,38.5,0,77.1,0,115.6
	c0,3.1,0.3,2.7-2.6,2.7c-6.3,0-12.5,0-18.8,0c-1.8,0-1.8,0-1.8-1.7c0-1.3,0-2.7,0-4c-0.3-0.1-0.5-0.2-0.6-0.1
	c-6.3,3.9-13.1,6.5-20.4,7.6c-1.1-0.1-2.1,0.1-3,0.5c-2.4,0-4.9,0-7.3,0C433.1,391.4,432.1,391.3,431.1,391.4z M411,342.9
	c0,14.6,12.5,26.8,27.4,26.8c14.6,0,27-12.3,27-26.7c0-14.5-12.4-27.1-26.9-27.1C423.6,315.8,411,328.2,411,342.9z"/>
<path class="st0" d="M576.7,391.9c-1.7-0.9-3.6-0.8-5.4-1.2c-19.7-4.3-35.1-21-37.9-40.9c-3.8-27.2,15-50,39.1-54.3
	c12.7-2.2,24.6-0.4,35.6,6.5c0.3,0.2,0.6,0.6,1.4,0.5c0-0.7,0-1.4,0-2.2c0-11.5,0-22.9,0-34.4c0-0.5,0-1,0-1.5
	c0-0.7,0.3-0.9,0.9-0.9c0.3,0,0.6,0,0.9,0c6.5,0,13,0,19.4,0c1.9,0,1.7-0.1,1.7,1.8c0,5.3,0,10.7,0,16c0,35.2,0,70.4,0,105.7
	c0,3.2,0.4,2.7-2.8,2.7c-6.1,0-12.2,0-18.4,0c-1.8,0-1.8,0-1.8-1.8c0-1.3,0-2.7,0-4c-0.8-0.2-1.2,0.4-1.7,0.6
	c-5.2,3.2-10.8,5.3-16.8,6.5c-1,0.2-2-0.3-2.9,0.4c-1,0-2,0.1-2.9,0.5C582.4,391.9,579.5,391.9,576.7,391.9z M609.6,342.9
	c0-14.6-12.5-27-27.2-27.1c-14.3,0-26.8,12.5-26.8,27c0,14.5,12.4,27,26.9,26.9C597.2,369.6,609.6,357.5,609.6,342.9z"/>
<path class="st0" d="M682.5,391.4c-5.6-0.9-10.9-2.5-15.9-5.2c-14.7-8.2-23.7-20.6-25.9-37.3c-3.3-24.5,12.9-47.4,37.2-53
	c12.5-2.8,24.4-1.4,35.7,4.9c1,0.5,1.9,1.2,3.1,1.9c0-2.3,0-4.2,0-6.1c0-0.9,0.3-1.3,1.2-1.2c7,0,14,0,20.9,0c0.8,0,1.2,0.2,1.1,1.1
	c-0.1,0.5,0,1,0,1.5c0,29.7,0,59.3,0,89c0,3,0.4,2.6-2.7,2.6c-6.2,0-12.4,0-18.6,0c-2,0-2,0-2-1.9c0-1.3,0-2.6,0-3.8
	c-0.7-0.3-1,0.2-1.4,0.5c-5.6,3.5-11.7,5.8-18.2,6.8c-1,0.2-2,0.2-2.9,0.8c-2.9,0-5.8,0-8.6,0C684.6,391.4,683.6,391.2,682.5,391.4z
	 M716.7,342.9c0-14.7-12.2-27.1-26.7-27c-15.6,0.1-27.2,13.6-27,27.2c0.2,14.4,12.6,26.7,27.1,26.6
	C704.7,369.6,716.8,357.5,716.7,342.9z"/>
<path class="st0" d="M280.9,339c1.5-20.7,16.8-38.6,37.1-43.1c13.6-3.1,26.4-1.2,38.4,6.1c0.2,0.1,0.5,0.3,0.8,0.4
	c0,0,0.1,0,0.5-0.1c0-1.8,0.1-3.7,0-5.6c0-1.1,0.4-1.3,1.4-1.3c6.8,0,13.5,0,20.3,0c1.1,0,1.4,0.4,1.3,1.4c-0.1,0.4,0,0.9,0,1.3
	c0,29.6,0,59.2,0,88.8c0,0.3,0,0.6,0,0.9c0,1.9,0,1.9-1.9,1.9c-6.3,0-12.7,0-19,0c-2,0-2,0-2-1.9c0-1.3,0-2.6,0-3.8
	c-0.7-0.3-1.1,0.2-1.5,0.4c-5.2,3.2-10.8,5.3-16.7,6.6c-1,0.2-2.2-0.2-3.1,0.5c-1,0-2,0.1-2.9,0.5c-2.4,0-4.9,0-7.3,0
	c-1-0.4-2-0.6-3-0.5c-0.8-0.1-1.7-0.3-2.5-0.4c-21.5-4.2-37.8-22.5-39.5-44.3C280.9,344.1,280.9,341.6,280.9,339z M357.6,342.7
	c0-1.2-0.1-2.7-0.4-4.2c-3.2-18.3-25.1-29.9-42.4-17.6c-9,6.4-13.4,17.5-10.9,27.6c3.5,14.7,18.1,23.8,32.8,20.3
	C348.6,366.1,357.5,355.1,357.6,342.7z"/>
<path class="st0" d="M783.7,391.4c-4.2-0.6-8.4-1.4-12.3-3c-5.9-2.2-11.1-5.5-15.1-10.4c-4.4-5.3-6.6-11.5-7.1-18.3
	c0.6-0.4,1.2-0.3,1.7-0.3c7,0,14,0,21,0c1.7,0,1.7,0,2,1.8c0.6,4.4,2.8,7.9,6.7,10c6.3,3.4,13,4,19.8,1.9c3.1-0.9,5.6-2.8,7.3-5.8
	c2.1-3.8,1.1-7.4-2.6-9.6c-2.4-1.5-5.2-2.1-7.9-2.6c-5.9-1.1-11.8-1.8-17.6-3c-4.5-1-8.9-2.1-13.2-3.9
	c-11.5-4.9-16.3-16.8-14.8-27.1c1.6-11,8.2-18.1,18-22.5c4.7-2.1,9.7-3.3,14.8-3.7c9.1-0.8,18.1-0.1,26.6,3.7
	c10.1,4.5,16.6,12.1,18.8,23.1c0.2,1.1,0.3,2.3,0.5,3.5c-7.9,0-15.7,0-23.6,0c-0.2-1.1-0.3-2.2-0.5-3.4c-0.7-4-3-6.7-6.9-8.2
	c-1.8-0.7-3.8-1-5.7-1.1c-4-0.2-7.9,0-11.8,1c-1.1,0.3-2.2,0.8-3.1,1.4c-3.5,2.1-5.5,8.2,0,11.6c2.7,1.6,5.7,2.5,8.7,3.1
	c5.6,1.1,11.3,2,17,3.1c4.9,0.9,9.7,2.1,14.2,4.3c4.3,2.1,8.1,4.9,11,8.8c2.1,3,3.7,6.2,3.9,9.9c0,0.3,0.1,0.6,0.4,0.7
	c0,1.6,0,3.2,0,4.8c-0.1,0.9-1,1.7,0,2.6c0,0.3,0,0.6,0,0.9c-0.3,0.1-0.4,0.3-0.4,0.6c-1,7.8-4.8,14-11.2,18.6
	c-5,3.6-10.8,5.5-16.8,6.7c-2.5,0.5-5,0.5-7.4,1.3c-3.6,0-7.2,0-10.8,0C786,391.4,784.9,391.2,783.7,391.4z"/>
<path class="st0" d="M280.9,346.6c1.7,21.9,18,40.1,39.5,44.3c0.8,0.2,1.7,0.3,2.5,0.4c0,0.2,0,0.3,0,0.5c-14.2,0-28.5,0-42.8,0
	c0-15.1,0-30.3,0-45.4C280.4,346.5,280.7,346.5,280.9,346.6z"/>
<path class="st0" d="M797.9,391.9c2.4-0.8,4.9-0.8,7.4-1.3c6-1.2,11.8-3.1,16.8-6.7c6.4-4.6,10.2-10.8,11.2-18.6
	c0-0.3,0.1-0.6,0.4-0.6c0,9.1,0,18.2,0,27.2C821.8,391.9,809.9,391.9,797.9,391.9z"/>
<path class="st0" d="M280.9,346.6c-0.2,0-0.5-0.1-0.7-0.1c0-2.4,0-4.9,0-7.3c0.3,0.2,0.5-0.1,0.7-0.1
	C280.9,341.6,280.9,344.1,280.9,346.6z"/>
<path class="st0" d="M783.7,391.4c1.2-0.1,2.3,0.1,3.5,0.5c-1.2,0-2.3,0-3.5,0C783.7,391.7,783.7,391.5,783.7,391.4z"/>
<path class="st0" d="M323,391.9c0-0.2,0-0.3,0-0.5c1.1-0.1,2.1,0.1,3,0.5C325,391.9,324,391.9,323,391.9z"/>
<path class="st0" d="M441.4,391.9c1-0.4,2-0.6,3-0.5c0,0.2,0,0.3,0,0.5C443.4,391.9,442.4,391.9,441.4,391.9z"/>
<path class="st0" d="M682.5,391.4c1.1-0.1,2.1,0.1,3,0.5c-1,0-2,0-3,0C682.5,391.7,682.5,391.5,682.5,391.4z"/>
<path class="st0" d="M333.4,391.9c0.9-0.5,1.9-0.5,2.9-0.5c0,0.2,0.1,0.4,0.1,0.5C335.4,391.9,334.4,391.9,333.4,391.9z"/>
<path class="st0" d="M431.1,391.4c1-0.1,2,0,2.9,0.5c-1,0-2,0-3,0C431.1,391.7,431.1,391.5,431.1,391.4z"/>
<path class="st0" d="M585.3,391.9c0.9-0.4,1.9-0.5,2.9-0.5c0,0.2,0.1,0.4,0.1,0.5C587.3,391.9,586.3,391.9,585.3,391.9z"/>
<path class="st0" d="M833.8,363.8c-1-0.9-0.1-1.7,0-2.6C833.8,362,833.8,362.9,833.8,363.8z"/>
<path class="st0" d="M608.7,263.5c-1,0-1.7,0-2.5,0c-26.8,0-53.6,0-80.4,0c-2.4,0-2.4,0-2.4,2.4c0,6.4,0,12.8,0,19.2
	c0,1.6,0,1.6-1.5,1.6c-6.8,0-13.5,0-20.3,0c-1.4,0-1.5,0-1.5-1.6c0-6.2-0.1-12.4,0-18.6c0-2.3-0.5-4.1-1.7-6.1
	C478,225,457.4,189.5,436.9,154c-1.3-2.2-1.3-2.2,1-3.5c25.8-14.9,51.5-29.7,77.3-44.6c2.1-1.2,2.1-1.2,3.3,0.8
	c29.7,51.5,59.4,102.9,89.1,154.4C608,261.7,608.5,262.3,608.7,263.5z"/>
<path class="st0" d="M464.7,263.5c-1,0-1.7,0-2.4,0c-34.8,0-69.6,0-104.3,0c-1.8,0-2.7-0.6-3.5-2.1c-4.6-8.1-9.2-16.1-13.8-24.2
	c-0.9-1.6-1-1.4,0.6-2.4c26.2-15.2,52.5-30.4,78.7-45.5c1.5-0.8,1.5-0.8,2.3,0.5c13.9,24.2,27.9,48.3,41.8,72.5
	C464.3,262.6,464.4,262.9,464.7,263.5z"/>
<path class="st0" d="M500.2,342.4c0-14.8,0-29.7,0-44.5c0-0.5,0-1,0-1.5c0-0.6,0.2-0.9,0.9-0.9c0.4,0,0.7,0,1.1,0c6.5,0,13,0,19.4,0
	c2.1,0,1.9-0.1,1.9,1.8c0,30.2,0,60.3,0,90.5c0,1.8,0,1.8-1.7,1.8c-6.6,0-13.2,0-19.9,0c-1.7,0-1.7,0-1.7-1.8
	C500.2,372.6,500.2,357.5,500.2,342.4z"/>
</svg>
