<?xml version="1.0" encoding="utf-8"?>
<!-- Generator: Adobe Illustrator 28.0.0, SVG Export Plug-In . SVG Version: 6.00 Build 0)  -->
<svg version="1.1" id="Warstwa_1" xmlns="http://www.w3.org/2000/svg" xmlns:xlink="http://www.w3.org/1999/xlink" x="0px" y="0px"
	 viewBox="0 0 1114 406" style="enable-background:new 0 0 1114 406;" xml:space="preserve">
<style type="text/css">
	.st0{fill:#FFFFFF;}
</style>
<g>
	<path class="st0" d="M1036.2,152.6v-3.5h-49.1v3.5h7.6v66.9L949,149.1h-21.3v3.5h7.6v89.7h-13.2L889,144.9l-34.1,97.5h-12.7v-89.7
		h7.6v-3.5h-20.1l-25.4,73.5l-26.6-73.5h-19.8v3.5h7.6v89.7h-15.1c-4.3,0-8-3.8-8-10.3v-14.2c0-10.8-3.5-19.9-14.4-23
		c9.5-2.9,16.1-11.9,16.1-21.6c0-13.7-10.3-24.2-30.1-24.2h-29.6v3.5h7.6v89.7h-15.3l-33.2-97.5l-34.2,97.5h-6.7v3.5h19.1v-3.5h-8.5
		l9.6-27.2h31.1l9.1,27.2h-11.7v3.5h64.7v-3.5h-11.8v-45.7h7.9c11.5,0,17.3,4.7,17.3,15.9v8.3c0,19.7,13,25,20.1,25h27.8v-3.5H769
		v-79.5l31.2,84l29.5-86.5v82h-7.6v3.5h45.1v-3.5h-8.4l9.5-27.2h31l9.1,27.2h-11.7v3.5h49.7v-3.5h-7.7v-84.8l59.5,91.4v-96.4h17.9
		v89.7h-7.6v3.5h27.7v-3.5h-7.6v-89.7H1036.2z M623.8,211.7l14.6-42.4l14.2,42.4H623.8z M712.1,193.1h-7.9v-40.5h6.6
		c11.6,0,19.4,7.5,19.4,21.3C730.1,181.5,724.2,193.1,712.1,193.1z M869.5,211.7l14.6-42.4l14.1,42.4H869.5z"/>
	<g>
		<path class="st0" d="M516.3,146.8c-25.4,0-41.9,28.3-41.9,50.7c0,24.5,17.9,50.6,41.9,50.6c24.1,0,42-24.5,42-50.6
			C558.3,175.1,540.4,146.8,516.3,146.8z M516.3,244.8c-24.3,0-25.7-32-25.7-47.2c0-15.1,1.8-47.3,25.7-47.3
			c23.9,0,25.9,32.1,25.9,47.3C542.2,212.7,540.7,244.8,516.3,244.8z"/>
		<polygon class="st0" points="442.8,152.6 450.4,152.6 450.4,242.4 442.8,242.4 442.8,245.8 470.5,245.8 470.5,242.4 462.9,242.4 
			462.9,152.6 470.5,152.6 470.5,149.1 442.8,149.1 		"/>
		<path class="st0" d="M357.1,243.2c-4.3,0-8-3.9-8-10.4v-14.9c0-10.9-3.5-19.9-14.4-23c9.4-2.9,16-11.9,16-21.6
			c0-13.7-10.2-24.2-29.9-24.2h-29.8v3.5h7.6v89.7h-7.6v3.5h31.8v-3.5h-11.8v-45.7h7.9c11.3,0,17.1,4.8,17.1,15.9v9.3
			c0,19.7,13,25,20.1,25c4.5,0,6.6-1.4,8.7-3.3l-2-2.8C360.2,243,358.4,243.2,357.1,243.2z M319,193.1h-7.9v-40.5h6.6
			c11.4,0,19.2,7.5,19.2,21.3C336.9,181.5,330.9,193.1,319,193.1z"/>
		<path class="st0" d="M245.4,146.8c-25.5,0-42,28.3-42,50.7c0,24.5,17.9,50.6,42,50.6c24.1,0,42-24.5,42-50.6
			C287.4,175.1,269.5,146.8,245.4,146.8z M245.4,244.8c-24.4,0-25.8-32-25.8-47.2c0-15.1,1.8-47.3,25.8-47.3c24,0,26,32.1,26,47.3
			C271.3,212.7,269.8,244.8,245.4,244.8z"/>
		<polygon class="st0" points="171.8,152.6 179.4,152.6 179.4,242.4 171.8,242.4 171.8,245.8 199.4,245.8 199.4,242.4 191.8,242.4 
			191.8,152.6 199.4,152.6 199.4,149.1 171.8,149.1 		"/>
		<path class="st0" d="M140.7,208h8.8v17.5c0,9.1-6.8,19.3-18.9,19.3c-23,0-25.3-29.1-25.3-47.2c0-16.6,1.8-47.3,27.1-47.3
			c9.6,0,20.1,8.6,22.3,27.5h3.1v-30.6h-3.1c-0.6,3.3-2.3,4.7-5.7,4.7c-3.4,0-7.3-5.1-16.7-5.1c-28.6,0-43.2,30.3-43.2,50.7
			c0,21.5,16.2,50.6,41.5,50.6c13.6,0,14.8-8.2,23.1-8.2c2.6,0,4.3,2.4,4.6,5.9h3.5V208h7.6v-3.5h-28.9V208z"/>
		<path class="st0" d="M411.6,208h8.9v17.5c0,9.1-6.9,19.3-19,19.3c-23,0-25.3-29.1-25.3-47.2c0-16.6,1.8-47.3,27.1-47.3
			c9.6,0,20.2,8.6,22.4,27.5h3.1v-30.6h-3.1c-0.6,3.3-2.3,4.7-5.7,4.7c-3.4,0-7.5-5.1-16.8-5.1c-28.6,0-43.2,30.3-43.2,50.7
			c0,21.5,16.2,50.6,41.5,50.6c13.8,0,15-8.2,23.3-8.2c2.6,0,4.3,2.4,4.6,5.9h3.5l0-37.8h7.6v-3.5h-29V208z"/>
	</g>
</g>
</svg>
