<?xml version="1.0" encoding="utf-8"?>
<!-- Generator: Adobe Illustrator 28.0.0, SVG Export Plug-In . SVG Version: 6.00 Build 0)  -->
<svg version="1.1" id="Warstwa_1" xmlns="http://www.w3.org/2000/svg" xmlns:xlink="http://www.w3.org/1999/xlink" x="0px" y="0px"
	 viewBox="0 0 1114 406" style="enable-background:new 0 0 1114 406;" xml:space="preserve">
<style type="text/css">
	.st0{fill:#020202;}
	.st1{fill:#010101;}
	.st2{fill:#FFFFFF;}
</style>
<path class="st0" d="M673.8,155.9c-0.8,0.1-1.5,0.1-2.3,0.1c-13.8,0-27.6,0-41.4,0c-0.5,0-0.9,0-1.4,0c-0.8-0.1-1.1,0.3-1,1
	c0,0.4,0,0.8,0,1.2c0,11.8,0,23.6,0,35.4c0,0.4,0,0.8,0,1.2c0,0.6,0.2,1,0.9,1c0.5,0,0.9,0,1.4,0c13.8,0,27.6,0,41.4,0
	c0.5,0,0.9,0,1.4,0c0.8-0.1,1.1,0.2,1.1,1c0,5.6,0,11.2,0,16.8c0,0.8-0.2,1.1-1,1c-0.5,0-0.9,0-1.4,0c-13.7,0-27.5,0-41.2,0
	c-0.4,0-0.8,0.1-1.2,0c-1.1-0.2-1.3,0.4-1.3,1.4c0,12.1,0,24.1,0,36.2c0,1.3,0,1.3,1.7,1.3c13.1,0,26.1,0,39.2,0c1.6,0,3.2,0,4.7,0
	c0.3,0.8-0.2,1.3-0.5,1.8c-2.5,5.2-5.2,10.4-7.6,15.6c-0.6,1.2-1.2,1.4-2.4,1.4c-13.7,0-27.3,0.1-41,0.2c-4.3,0-8.5,0-12.8,0.1
	c-2.3,0-2.1,0.1-2.1-2c0-6.9,0-13.9,0-20.8c0-10.9,0-21.9,0-32.8c0-0.4-0.1-0.8,0-1.2c0.2-1.1-0.4-1.4-1.4-1.3c-0.3,0-0.5,0-0.8,0
	c-20.6,0-41.2,0-61.8,0c-0.1,0-0.3,0-0.4,0c-1.8,0-1.7-0.1-1.7,1.7c0,17.9,0,35.7,0,53.6c0,2.9,0.4,2.5-2.6,2.5
	c-5.5,0-10.9,0-16.4,0c-1.9,0-1.7,0.1-1.7-1.7c0-29.8,0-59.6,0-89.4c0-14.1,0-28.3,0-42.4c0-0.2,0-0.4,0-0.6c0-1.5,0-1.5,1.6-1.5
	c5.7,0,11.5,0,17.2,0c1.4,0,1.5,0,1.5,1.6c0,12.6,0,25.2,0,37.8c0,5.7,0,11.5,0,17.2c0,2.2-0.3,1.9,1.9,1.9c20.9,0,41.8,0,62.6,0
	c2.2,0,1.9,0.1,1.9-1.9c0-18.1,0-36.1,0-54.2c0-2.4,0-2.4,2.4-2.4c18.9,0,37.9,0,56.8,0.1c0.6,0,1.2,0.1,1.8,0
	c0.9-0.1,1.3,0.3,1.5,1.2c1.4,5.8,2.9,11.6,4.3,17.4C673.8,155.5,673.8,155.6,673.8,155.9z"/>
<path class="st1" d="M893.9,199.9c-14.5,24.3-28.7,48.2-43.1,72.5c-4.9-8.1-9.6-16.1-14.3-24c-4.8-8-9.5-16-14.3-24
	c-4.8-8-9.5-16-14.5-24.4c-0.2,1.4-0.4,2.4-0.5,3.4c-1.3,12.3-2.5,24.5-3.7,36.8c-1.1,10.3-2.1,20.7-3.2,31
	c-0.1,0.8-0.2,1.3-1.3,1.3c-6.3,0-12.5,0-18.8,0c-0.2,0-0.4-0.1-0.6-0.2c5.5-45,10.9-90,16.4-135c0.1,0,0.2-0.1,0.3-0.1
	c18.1,32.4,36.3,64.7,54.5,97.4c18.3-32.6,36.4-64.9,54.4-97.2c0.1,0,0.3,0,0.4,0c5.5,45,11,90,16.5,134.9c-0.6,0.4-1.1,0.3-1.5,0.3
	c-5.8,0-11.6,0-17.4,0c-1.7,0-1.7,0-1.9-1.7c-0.4-4.2-0.9-8.3-1.3-12.5c-0.8-7.4-1.5-14.8-2.3-22.3c-0.7-7.1-1.4-14.2-2.2-21.3
	c-0.4-4.2-0.8-8.5-1.3-12.7C894.2,201.3,894.1,200.8,893.9,199.9z"/>
<path class="st1" d="M240.5,201.2c2.8,2.7,5.3,5.7,7.6,8.9c2.2,3,3.6,6.3,5,9.7c2.2,5.3,2.9,10.9,2.2,16.5c-0.8,7.1-3,13.8-7.9,19.3
	c-1,1.1-1.7,2.4-2.7,3.4c-3.1,3.3-6.9,5.6-10.7,8c-1.8,1.1-3.8,1.5-5.7,2.3c-3.8,1.5-7.6,2.2-11.6,2.6c-3,0.3-6,0.4-9,0.4
	c-13.4,0-26.8,0-40.2,0c-0.5,0-0.9,0-1.4,0c-0.6,0-0.8-0.3-0.8-0.8c0-0.4,0-0.8,0-1.2c0-45.7,0-91.5,0-137.2c0-0.4,0-0.8,0-1.2
	c0-0.6,0.3-0.8,0.9-0.8c0.5,0,0.9,0,1.4,0c15,0,30,0,45,0c6.2,0,12.1,1,17.9,3.4c7.4,2.9,13,7.8,17.3,14.3c3.9,5.9,6,12.4,6.6,19.4
	c0.5,6.5-0.3,12.6-2.8,18.5c-2.1,4.9-5.1,9.3-9.3,12.8C241.6,200,240.9,200.4,240.5,201.2z M185.9,231.9c0,6.3,0,12.7,0,19
	c0,0.5,0,0.9,0,1.4c0,0.6,0.3,0.8,0.8,0.8c0.4,0,0.8,0,1.2,0c8.6-0.1,17.2,0.1,25.8-0.3c5.2-0.3,9.8-2,13.8-5.2
	c5.5-4.3,7.5-10.3,7-17c-0.3-4.2-1.9-8.2-4.6-11.5c-4.2-5.3-9.6-8.3-16.5-8.5c-8.5-0.3-17.1-0.2-25.6-0.2c-2.2,0-2-0.2-2,2.1
	C185.9,219,185.9,225.4,185.9,231.9z M186.5,170.5c0,6.6,0,13.2,0,19.8c0,1.6,0,1.6,1.4,1.6c8.7-0.1,17.3,0.1,26-0.4
	c4-0.2,7.7-1.2,11.2-3.3c6.9-4.2,10.2-10.4,9.7-18.4c-0.4-6-3-11.1-7.6-15.2c-3.7-3.2-7.9-5.2-12.8-5.3c-8.8-0.1-17.6,0-26.4,0
	c-1.6,0-1.5,0-1.5,1.5C186.5,157.4,186.5,163.9,186.5,170.5z"/>
<path class="st1" d="M439.3,204.6c-0.1,16.2-4.9,30.9-14.8,43.8c-7.1,9.2-16,16.1-26.6,20.8c-9,3.9-18.3,5.9-28.1,5.9
	c-12.4,0-24-3.1-34.7-9.2c-7.7-4.4-14.3-10.2-19.8-17.2c-6.1-7.8-10.4-16.4-13-25.9c-2.3-8.3-2.8-16.8-2.1-25.3
	c0.7-8,2.7-15.6,6.1-22.8c7.6-16.1,19.4-27.9,35.9-34.8c15.2-6.4,30.9-7.2,46.8-2.6c12.9,3.7,23.8,10.7,32.8,20.8
	c8.6,9.7,14.1,20.9,16.6,33.6C439.1,195.9,439.4,200.2,439.3,204.6z M369.4,154.8c-6.5-0.1-12.7,1.2-18.6,3.8
	c-11.3,5.1-19.8,13-25,24.2c-5,10.7-6.3,22-3.4,33.7c3,12.1,9.3,21.9,19.4,29.1c9.6,6.9,20.6,10,32.5,8.6
	c9.7-1.1,18.7-4.1,26.4-10.4c7.4-6.1,12.9-13.4,15.7-22.6c1.3-4.2,2.2-8.4,2.6-12.7c0.5-6-0.4-11.8-2-17.6
	c-3.2-11.3-9.8-20.4-19.2-27.3C389.3,157.6,379.7,155,369.4,154.8z"/>
<path class="st1" d="M728.9,213.2c13.9,17.5,27.7,34.9,41.7,52.5c-3.5,1.1-6.8,2.2-10.1,3.2c-3.1,1-6.2,2-9.3,3
	c-1.6,0.5-1.6,0.5-2.6-0.8c-8.6-11.1-17.2-22.3-25.8-33.4c-5.6-7.2-11.2-14.5-16.7-21.7c-0.2-0.3-0.4-0.5-0.7-0.9
	c-0.5,0.8-0.3,1.5-0.3,2.2c0,17.5,0,35.1,0,52.6c0,0.4,0,0.8,0,1.2c0.1,0.9-0.1,1.3-1.2,1.3c-6.1-0.1-12.1,0-18.2,0
	c-1,0-1.3-0.4-1.2-1.3c0-0.3,0-0.7,0-1c0-43.7,0-87.4,0-131c0-2.7-0.4-2.4,2.3-2.4c14.8,0,29.6-0.1,44.4,0
	c6.3,0.1,12.2,1.7,17.8,4.6c8.4,4.4,14.7,10.8,18.5,19.5c4,9.2,4.3,18.7,0.4,28c-2.9,6.8-7.7,12.2-14.1,16.1
	c-6.6,3.9-13.7,6.1-21.2,7.5C731.5,212.5,730.3,212.6,728.9,213.2z M705.2,174.8C705.1,174.8,705.1,174.8,705.2,174.8
	c-0.1,6.5-0.1,12.9-0.1,19.4c0,1.7-0.1,1.7,1.6,1.7c7.1,0,14.1,0,21.2,0c4.6,0,9.1-0.9,13.2-2.7c5.1-2.2,8.7-6.1,10.7-11.5
	c2.1-5.7,1.2-11.1-1.4-16.2c-2.3-4.6-6.3-7.7-11.1-9.6c-3.7-1.5-7.6-2-11.5-2c-7-0.1-14,0-21,0c-1.8,0-1.7-0.1-1.7,1.8
	C705.2,162,705.2,168.4,705.2,174.8z"/>
<path class="st1" d="M428.6,154.9c0.6-2.5,1.2-4.7,1.7-6.9c0.8-3.4,1.7-6.8,2.5-10.3c0.2-0.8,0.5-1.2,1.3-1.1c0.4,0,0.8,0,1.2,0
	c24.4,0,48.8,0,73.2,0c0.3,0,0.5,0,0.8,0c1.6,0,1.5,0,1.5,1.5c0,5.1,0,10.1,0,15.2c0,1.5,0,1.5-1.6,1.5c-0.4,0-0.8,0-1.2,0
	c-8.9,0-17.7,0-26.6,0c-1.8,0-1.8,0-1.8,1.7c0,0.4,0,0.8,0,1.2c0,37.4,0,74.8,0,112.2c0,2.3,0,2.3-2.3,2.3c-5.2,0-10.4,0-15.6,0
	c-2.5,0-2.2,0.2-2.2-2.1c0-4.1,0-8.3,0-12.4c0-33.5,0-67.1,0-100.6c0-2.7,0.4-2.3-2.3-2.3c-8.7,0-17.5,0-26.2,0
	C430.4,154.9,429.7,154.9,428.6,154.9z"/>
<path class="st0" d="M267.2,204.3c0-21.8,0-43.6,0-65.4c0-2.5-0.3-2.2,2.3-2.2c5.8,0,11.6,0,17.4,0c1.4,0,1.4,0,1.5,1.4
	c0,0.3,0,0.7,0,1c0,43.7,0,87.3,0,131c0,2.3,0,2.3-2.3,2.3c-5.6,0-11.2,0-16.8,0c-2.2,0-2,0.2-2-2.1
	C267.2,248.3,267.2,226.3,267.2,204.3z"/>
<path class="st2" d="M185.9,231.9c0-6.5,0-12.9,0-19.4c0-2.2-0.3-2.1,2-2.1c8.5,0,17.1-0.1,25.6,0.2c6.8,0.2,12.3,3.2,16.5,8.5
	c2.7,3.4,4.3,7.3,4.6,11.5c0.5,6.7-1.6,12.6-7,17c-4,3.2-8.5,4.9-13.8,5.2c-8.6,0.5-17.2,0.2-25.8,0.3c-0.4,0-0.8,0-1.2,0
	c-0.6,0-0.9-0.2-0.8-0.8c0-0.5,0-0.9,0-1.4C185.9,244.6,185.9,238.2,185.9,231.9z"/>
</svg>
