<svg xmlns="http://www.w3.org/2000/svg" version="1.1" id="Warstwa_1" x="0" y="0" viewBox="0 0 1114 406" style="enable-background:new 0 0 1114 406" fill="#fff" xml:space="preserve"><style>.st0{fill:#fff}.st1{fill:#f7f7f7}</style><path stroke="#fff" class="st0" d="M673.8 155.9c-.8.1-1.5.1-2.3.1h-42.8c-.8-.1-1.1.3-1 1v37.8c0 .6.2 1 .9 1h44.2c.8-.1 1.1.2 1.1 1v16.8c0 .8-.2 1.1-1 1h-42.6c-.4 0-.8.1-1.2 0-1.1-.2-1.3.4-1.3 1.4v36.2c0 1.3 0 1.3 1.7 1.3h43.9c.3.8-.2 1.3-.5 1.8-2.5 5.2-5.2 10.4-7.6 15.6-.6 1.2-1.2 1.4-2.4 1.4-13.7 0-27.3.1-41 .2-4.3 0-8.5 0-12.8.1-2.3 0-2.1.1-2.1-2V217c0-.4-.1-.8 0-1.2.2-1.1-.4-1.4-1.4-1.3h-63c-1.8 0-1.7-.1-1.7 1.7v53.6c0 2.9.4 2.5-2.6 2.5h-16.4c-1.9 0-1.7.1-1.7-1.7V138.2c0-1.5 0-1.5 1.6-1.5H539c1.4 0 1.5 0 1.5 1.6v55c0 2.2-.3 1.9 1.9 1.9H605c2.2 0 1.9.1 1.9-1.9v-54.2c0-2.4 0-2.4 2.4-2.4 18.9 0 37.9 0 56.8.1.6 0 1.2.1 1.8 0 .9-.1 1.3.3 1.5 1.2 1.4 5.8 2.9 11.6 4.3 17.4.1.1.1.2.1.5z" fill="#000"/><path class="st1" d="M893.9 199.9c-14.5 24.3-28.7 48.2-43.1 72.5-4.9-8.1-9.6-16.1-14.3-24-4.8-8-9.5-16-14.3-24-4.8-8-9.5-16-14.5-24.4-.2 1.4-.4 2.4-.5 3.4-1.3 12.3-2.5 24.5-3.7 36.8-1.1 10.3-2.1 20.7-3.2 31-.1.8-.2 1.3-1.3 1.3h-18.8c-.2 0-.4-.1-.6-.2 5.5-45 10.9-90 16.4-135 .1 0 .2-.1.3-.1 18.1 32.4 36.3 64.7 54.5 97.4 18.3-32.6 36.4-64.9 54.4-97.2h.4c5.5 45 11 90 16.5 134.9-.6.4-1.1.3-1.5.3h-17.4c-1.7 0-1.7 0-1.9-1.7-.4-4.2-.9-8.3-1.3-12.5-.8-7.4-1.5-14.8-2.3-22.3-.7-7.1-1.4-14.2-2.2-21.3-.4-4.2-.8-8.5-1.3-12.7 0-.8-.1-1.3-.3-2.2zm-653.4 1.3c2.8 2.7 5.3 5.7 7.6 8.9 2.2 3 3.6 6.3 5 9.7 2.2 5.3 2.9 10.9 2.2 16.5-.8 7.1-3 13.8-7.9 19.3-1 1.1-1.7 2.4-2.7 3.4-3.1 3.3-6.9 5.6-10.7 8-1.8 1.1-3.8 1.5-5.7 2.3-3.8 1.5-7.6 2.2-11.6 2.6-3 .3-6 .4-9 .4h-41.6c-.6 0-.8-.3-.8-.8V131.9c0-.6.3-.8.9-.8h46.4c6.2 0 12.1 1 17.9 3.4 7.4 2.9 13 7.8 17.3 14.3 3.9 5.9 6 12.4 6.6 19.4.5 6.5-.3 12.6-2.8 18.5-2.1 4.9-5.1 9.3-9.3 12.8-.7.5-1.4.9-1.8 1.7zm-54.6 30.7v20.4c0 .6.3.8.8.8h1.2c8.6-.1 17.2.1 25.8-.3 5.2-.3 9.8-2 13.8-5.2 5.5-4.3 7.5-10.3 7-17-.3-4.2-1.9-8.2-4.6-11.5-4.2-5.3-9.6-8.3-16.5-8.5-8.5-.3-17.1-.2-25.6-.2-2.2 0-2-.2-2 2.1.1 6.5.1 12.9.1 19.4zm.6-61.4v19.8c0 1.6 0 1.6 1.4 1.6 8.7-.1 17.3.1 26-.4 4-.2 7.7-1.2 11.2-3.3 6.9-4.2 10.2-10.4 9.7-18.4-.4-6-3-11.1-7.6-15.2-3.7-3.2-7.9-5.2-12.8-5.3-8.8-.1-17.6 0-26.4 0-1.6 0-1.5 0-1.5 1.5v19.7zm252.8 34.1c-.1 16.2-4.9 30.9-14.8 43.8-7.1 9.2-16 16.1-26.6 20.8-9 3.9-18.3 5.9-28.1 5.9-12.4 0-24-3.1-34.7-9.2-7.7-4.4-14.3-10.2-19.8-17.2-6.1-7.8-10.4-16.4-13-25.9-2.3-8.3-2.8-16.8-2.1-25.3.7-8 2.7-15.6 6.1-22.8 7.6-16.1 19.4-27.9 35.9-34.8 15.2-6.4 30.9-7.2 46.8-2.6 12.9 3.7 23.8 10.7 32.8 20.8 8.6 9.7 14.1 20.9 16.6 33.6.7 4.2 1 8.5.9 12.9zm-69.9-49.8c-6.5-.1-12.7 1.2-18.6 3.8-11.3 5.1-19.8 13-25 24.2-5 10.7-6.3 22-3.4 33.7 3 12.1 9.3 21.9 19.4 29.1 9.6 6.9 20.6 10 32.5 8.6 9.7-1.1 18.7-4.1 26.4-10.4 7.4-6.1 12.9-13.4 15.7-22.6 1.3-4.2 2.2-8.4 2.6-12.7.5-6-.4-11.8-2-17.6-3.2-11.3-9.8-20.4-19.2-27.3-8.5-6-18.1-8.6-28.4-8.8zm359.5 58.4c13.9 17.5 27.7 34.9 41.7 52.5-3.5 1.1-6.8 2.2-10.1 3.2l-9.3 3c-1.6.5-1.6.5-2.6-.8-8.6-11.1-17.2-22.3-25.8-33.4-5.6-7.2-11.2-14.5-16.7-21.7-.2-.3-.4-.5-.7-.9-.5.8-.3 1.5-.3 2.2v53.8c.1.9-.1 1.3-1.2 1.3-6.1-.1-12.1 0-18.2 0-1 0-1.3-.4-1.2-1.3v-132c0-2.7-.4-2.4 2.3-2.4 14.8 0 29.6-.1 44.4 0 6.3.1 12.2 1.7 17.8 4.6 8.4 4.4 14.7 10.8 18.5 19.5 4 9.2 4.3 18.7.4 28-2.9 6.8-7.7 12.2-14.1 16.1-6.6 3.9-13.7 6.1-21.2 7.5-1.1.1-2.3.2-3.7.8zm-23.7-38.4c-.1 0-.1 0 0 0-.1 6.5-.1 12.9-.1 19.4 0 1.7-.1 1.7 1.6 1.7h21.2c4.6 0 9.1-.9 13.2-2.7 5.1-2.2 8.7-6.1 10.7-11.5 2.1-5.7 1.2-11.1-1.4-16.2-2.3-4.6-6.3-7.7-11.1-9.6-3.7-1.5-7.6-2-11.5-2-7-.1-14 0-21 0-1.8 0-1.7-.1-1.7 1.8.1 6.3.1 12.7.1 19.1z" fill="#000"/><path class="st1" d="M428.6 154.9c.6-2.5 1.2-4.7 1.7-6.9.8-3.4 1.7-6.8 2.5-10.3.2-.8.5-1.2 1.3-1.1h75.2c1.6 0 1.5 0 1.5 1.5v15.2c0 1.5 0 1.5-1.6 1.5h-27.8c-1.8 0-1.8 0-1.8 1.7v113.4c0 2.3 0 2.3-2.3 2.3h-15.6c-2.5 0-2.2.2-2.2-2.1v-113c0-2.7.4-2.3-2.3-2.3H431c-.6.1-1.3.1-2.4.1z" fill="#000"/><path class="st0" d="M267.2 204.3v-65.4c0-2.5-.3-2.2 2.3-2.2h17.4c1.4 0 1.4 0 1.5 1.4v132c0 2.3 0 2.3-2.3 2.3h-16.8c-2.2 0-2 .2-2-2.1-.1-22-.1-44-.1-66z" fill="#000"/><path d="M185.9 231.9v-19.4c0-2.2-.3-2.1 2-2.1 8.5 0 17.1-.1 25.6.2 6.8.2 12.3 3.2 16.5 8.5 2.7 3.4 4.3 7.3 4.6 11.5.5 6.7-1.6 12.6-7 17-4 3.2-8.5 4.9-13.8 5.2-8.6.5-17.2.2-25.8.3h-1.2c-.6 0-.9-.2-.8-.8v-1.4c-.1-6.3-.1-12.7-.1-19z" fill="#000"/></svg>