<?xml version="1.0" encoding="utf-8"?>
<!-- Generator: Adobe Illustrator 28.0.0, SVG Export Plug-In . SVG Version: 6.00 Build 0)  -->
<svg version="1.1" xmlns="http://www.w3.org/2000/svg" xmlns:xlink="http://www.w3.org/1999/xlink" x="0px" y="0px"
	 viewBox="0 0 608.1 365.5" style="enable-background:new 0 0 608.1 365.5;" xml:space="preserve">
<style type="text/css">
	.st0{fill:#FFFFFF;}
</style>
<g id="Layer_2">
</g>
<g id="Layer_1">
</g>
<g id="Layer_3">
	<g>
		<defs>
			<path id="SVGID_00000044176857163476198310000002309055159416647857_" d="M161.2,161.7c3.5-12.6,8.7-24.3,15.6-35.1
				c7,10.9,12.3,22.5,15.8,35.1H161.2z M186.2,111.5h-17.7c-19.4,21-29.3,53.5-31.9,84.2H155c0.6-6.3,1.3-12.4,2.4-18.4h38.9
				c1.1,6.1,1.9,12.2,2.5,18.4h19.1C215.2,165,205.7,132.5,186.2,111.5z M89.4,182.5c-1.8,0-3.8,0-5.3-0.3v-57.1
				c2.1,0,4.5-0.2,6.9-0.3c9.2,0,31.3,3.6,31.3,28.6C122.2,178.4,100.7,182.6,89.4,182.5z M89.5,108.8c-11.4,0-21.4,1.3-25,2
				c1,3.4,1.5,11.4,1.5,42.7c0,31.5-0.7,40.4-1,43.1c2.2,0.7,11.8,2.2,21.6,2.2c18.7-0.1,52.4-8.2,53.2-46.5
				C140.3,113.1,105.5,108.8,89.5,108.8z M341,125.1c-14.3,0-25.8,12.6-25.8,28.4c0,15.8,11.5,28.6,25.8,28.6
				c14.3,0,25.7-12.8,25.7-28.6C366.7,137.7,355.4,125.1,341,125.1z M383.7,153.5c0,25-19.2,45.2-42.6,45.2
				c-23.6,0-42.6-20.3-42.6-45.2c0-24.9,19-44.9,42.6-44.9C364.4,108.6,383.7,128.6,383.7,153.5z M484.2,143.9
				c2.6-14.2,14.4-19.3,21.5-19.3c4.7,0,10.4,1.8,14,5.3c5.2,4.8,6.1,11.2,6.4,14.2l0,1.9h-2h-38.1h-2.4L484.2,143.9z M505.2,182.5
				c-14.3-0.4-20.6-12.7-21.6-22.1h59.1c0.4-2.7,1-6.5,0.9-9.9c-0.1-9.1-1.5-19.1-8.7-28.8c-8.7-11.6-21.1-12.9-29.5-12.9
				c-10.8,0-20.3,3.9-27.2,10.9c-8.2,8-12.5,20.1-12.7,33.7c-0.1,14.1,3.4,26.9,11.9,35.2c7.2,7,17.3,11,29.2,10.2
				c8.3-0.6,23.2-2.4,35.2-19.3l-17.4-4C518.1,181.9,511.2,182.7,505.2,182.5z M460.7,111.5h-18.3v41c-5.8-9-12.4-16.6-18.9-23.3
				c-7.1-7.1-14.7-14.4-20.1-17.8h-15.3v84.2h18.3V138c15.4,13.3,31.2,33.6,37.8,57.7h0.2h16.2V111.5z M293.8,111.5h-18.1v41
				c-5.8-9-12.2-16.6-18.9-23.3c-7-7.1-14.8-14.4-20.1-17.8h-15.2v84.2h18.3V138c15.4,13.3,31.1,33.6,37.8,57.7h0.1h16.2V111.5z"/>
		</defs>
		
			<use xlink:href="#SVGID_00000044176857163476198310000002309055159416647857_"  style="overflow:visible;fill-rule:evenodd;clip-rule:evenodd;fill:#FFFFFF;"/>
		<clipPath id="SVGID_00000147932947243856498440000017393996334390478254_">
			<use xlink:href="#SVGID_00000044176857163476198310000002309055159416647857_"  style="overflow:visible;"/>
		</clipPath>
	</g>
	<g>
		<path class="st0" d="M78.2,218.8c2.1,0,13.3,0.5,13.3,11.8c0,11.6-2.9,17.5-5.6,20.4c-2.4,2.7-6.1,3.8-9.9,3.8
			c-4.5,0-10.1-2-10.1-12.4C66,225,71.1,218.8,78.2,218.8z M84.6,232.2c0-8.4-2.2-10.1-4.9-10.1c-2.5,0-6.8,1.1-6.8,19.8
			c0,2.9,0.3,9.7,6.1,9.7C81.6,251.6,84.6,246.2,84.6,232.2z"/>
		<path class="st0" d="M98.4,218.3c0.9,0,1.3,0.5,1.3,0.5c1,0,10.8,26.2,10.8,26.2c-0.1-0.3-0.1-2.4-0.1-2.8
			c0.4-7.6,1.6-16.1,1.4-21.8c-0.1-2.5,1.2-3.2,2.3-3.3c1,0,2,0.5,2,1c0.7,21.2-2,36.7-3.2,37.4c-0.5,0.3-1.1,0.4-1.7,0.5
			c-0.7,0-1.4-0.1-1.6-0.3c-2.3-1.4-10.7-21.9-10.7-21.9c0.2,11.6-0.4,21.7-2,22.4c-0.4,0.2-0.8,0.3-1.1,0.3c-0.7,0-1.2-0.2-1.3-0.7
			c-0.2-1.1-0.3-2.6-0.4-4.4c-0.4-10.8,1.4-31.9,2.7-32.6C97.6,218.5,98,218.3,98.4,218.3z"/>
		<path class="st0" d="M225.6,218.3c0.9,0,1.3,0.5,1.3,0.5c1,0,10.8,26.2,10.8,26.2c-0.1-0.3-0.1-2.4-0.1-2.8
			c0.4-7.6,1.6-16.1,1.4-21.8c-0.1-2.5,1.2-3.2,2.3-3.3c1,0,2,0.5,2,1c0.7,21.2-2,36.7-3.2,37.4c-0.5,0.3-1.1,0.4-1.7,0.5
			c-0.7,0-1.4-0.1-1.6-0.3c-2.3-1.4-10.7-21.9-10.7-21.9c0.2,11.6-0.4,21.7-2,22.4c-0.4,0.2-0.8,0.3-1.1,0.3c-0.7,0-1.2-0.2-1.3-0.7
			c-0.2-1.1-0.3-2.6-0.4-4.4c-0.4-10.8,1.4-31.9,2.7-32.6C224.8,218.5,225.2,218.3,225.6,218.3z"/>
		<path class="st0" d="M128.3,238.2h-1.5c0.3,6.7,1.6,12.7,5.5,12.7c3.8,0,3.2-1.8,5.3-1.8c1.1,0,1.6,0.7,1.6,1.6
			c0,0.5-0.2,1.1-0.4,1.5c-0.7,1.1-2.4,1.9-5.9,1.9c-12.2,0-13.7-9.3-13.7-17.2c0-3.5,1-13.2,4.5-16.2c0-1.1,0.2-1.3,1-1.3
			c4,0,8,0.6,12.6,1.2c1.6,0.2,1.9,0.7,1.9,1.5v0c0,1.6-1.7,2.1-1.7,2.1s-3.6,0.8-9.8,1c-0.7,2.4-1.1,5.6-1.1,8.8h1.4
			c2.5,0,6,0.1,7.3,0.6c0.4,0.1,0.6,0.6,0.6,1.1c0,0.5-0.2,1-0.6,1.1C132,238.2,129.5,238.2,128.3,238.2z"/>
		<g>
			<path class="st0" d="M331.8,218.8c2.1,0,13.3,0.5,13.3,11.8c0,11.6-2.9,17.5-5.6,20.4c-2.4,2.7-6.1,3.8-9.9,3.8
				c-4.5,0-10.1-2-10.1-12.4C319.6,225,324.7,218.8,331.8,218.8z M338.2,232.2c0-8.4-2.2-10.1-4.9-10.1c-2.5,0-6.8,1.1-6.8,19.8
				c0,2.9,0.3,9.7,6.1,9.7C335.1,251.6,338.2,246.2,338.2,232.2z"/>
			<path class="st0" d="M352,218.3c0.9,0,1.3,0.5,1.3,0.5c1,0,10.8,26.2,10.8,26.2c-0.1-0.3-0.1-2.4-0.1-2.8
				c0.4-7.6,1.6-16.1,1.4-21.8c-0.1-2.5,1.2-3.2,2.3-3.3c1,0,2,0.5,2,1c0.7,21.2-2,36.7-3.2,37.4c-0.5,0.3-1.1,0.4-1.7,0.5
				c-0.7,0-1.4-0.1-1.6-0.3c-2.3-1.4-10.7-21.9-10.7-21.9c0.2,11.6-0.4,21.7-2,22.4c-0.4,0.2-0.8,0.3-1.1,0.3
				c-0.7,0-1.2-0.2-1.3-0.7c-0.2-1.1-0.3-2.6-0.4-4.4c-0.4-10.8,1.4-31.9,2.7-32.6C351.2,218.5,351.6,218.3,352,218.3z"/>
			<path class="st0" d="M381.8,238.2h-1.5c0.3,6.7,1.6,12.7,5.5,12.7c3.8,0,3.2-1.8,5.3-1.8c1.1,0,1.6,0.7,1.6,1.6
				c0,0.5-0.2,1.1-0.4,1.5c-0.7,1.1-2.4,1.9-5.9,1.9c-12.2,0-13.7-9.3-13.7-17.2c0-3.5,1-13.2,4.5-16.2c0-1.1,0.2-1.3,1-1.3
				c4,0,8,0.6,12.6,1.2c1.6,0.2,1.9,0.7,1.9,1.5v0c0,1.6-1.7,2.1-1.7,2.1s-3.6,0.8-9.8,1c-0.7,2.4-1.1,5.6-1.1,8.8h1.4
				c2.5,0,6,0.1,7.3,0.6c0.4,0.1,0.6,0.6,0.6,1.1c0,0.5-0.2,1-0.6,1.1C385.6,238.2,383.1,238.2,381.8,238.2z"/>
		</g>
		<path class="st0" d="M255.9,238.2h-1.5c0.3,6.7,1.6,12.7,5.5,12.7c3.8,0,3.2-1.8,5.3-1.8c1.1,0,1.6,0.7,1.6,1.6
			c0,0.5-0.2,1.1-0.4,1.5c-0.7,1.1-2.4,1.9-5.9,1.9c-12.2,0-13.7-9.3-13.7-17.2c0-3.5,1-13.2,4.5-16.2c0-1.1,0.2-1.3,1-1.3
			c4,0,8,0.6,12.6,1.2c1.6,0.2,1.9,0.7,1.9,1.5v0c0,1.6-1.7,2.1-1.7,2.1s-3.6,0.8-9.8,1c-0.7,2.4-1.1,5.6-1.1,8.8h1.4
			c2.5,0,6,0.1,7.3,0.6c0.4,0.1,0.6,0.6,0.6,1.1c0,0.5-0.2,1-0.6,1.1C259.7,238.2,257.2,238.2,255.9,238.2z"/>
		<path class="st0" d="M443.5,238.2H442c0.3,6.7,1.6,12.7,5.5,12.7c3.8,0,3.2-1.8,5.3-1.8c1.1,0,1.6,0.7,1.6,1.6
			c0,0.5-0.2,1.1-0.4,1.5c-0.7,1.1-2.4,1.9-5.9,1.9c-12.2,0-13.7-9.3-13.7-17.2c0-3.5,1-13.2,4.5-16.2c0-1.1,0.2-1.3,1-1.3
			c4,0,8,0.6,12.6,1.2c1.6,0.2,1.9,0.7,1.9,1.5v0c0,1.6-1.7,2.1-1.7,2.1s-3.6,0.8-9.8,1c-0.7,2.4-1.1,5.6-1.1,8.8h1.4
			c2.5,0,6,0.1,7.3,0.6c0.4,0.1,0.6,0.6,0.6,1.1c0,0.5-0.2,1-0.6,1.1C447.3,238.2,444.8,238.2,443.5,238.2z"/>
		<path class="st0" d="M162.8,239.7l0.4,12.3c0.1,2.8,0.4,4.1-2.9,4.3c-3.3,0.1-4-2.9-4.2-8.7c-0.2-5.5,0.3-12.3,0.2-16.9
			c0-1.4-0.3-2.7-0.3-4.8c-0.2-5.7,1.4-8,3.4-8.1c1.6-0.1,2.7,0.6,3.1,0.9c1-0.7,2.3-1.1,4.1-1.2c5.7-0.2,9.9,2.2,10.1,8.7
			c0.2,5.1-1.4,13.6-10.7,13.9C164.9,240.2,163.4,240.1,162.8,239.7z M162.7,229.5l0,6.9c1.4,0.4,2.2,0.6,4.2,0.5
			c2-0.1,4.5-5.1,4.3-9.5c-0.1-3.5-2.5-6.7-4.1-6.6c-4.2,0.1-3.7,4.5-4.1,6.7C162.9,227.6,162.8,228.6,162.7,229.5z"/>
		<path class="st0" d="M185.3,219.6c1.1,1.8,0.6,8.6,0.4,13.1c-0.4,7.9-0.5,14.3-0.5,17.8c1.5-0.1,3.5,0.2,5.4,0.2
			c3,0,5.2,0.1,5.5,1.4c0.4,2.3,0.8,3.1-11.1,3.1c-6.2,0-6-4.8-6.1-10.4c0-4.7,0.2-11.2,0.5-16.4c0.3-5.9,1-10.7,2.6-10.7
			C183.3,217.7,184.3,218.1,185.3,219.6z"/>
		<path class="st0" d="M486.2,219.6c1.1,1.8,0.6,8.6,0.4,13.1c-0.4,7.9-0.5,14.3-0.5,17.8c1.5-0.1,3.5,0.2,5.4,0.2
			c3,0,5.2,0.1,5.5,1.4c0.4,2.3,0.8,3.1-11.1,3.1c-6.2,0-6-4.8-6.1-10.4c0-4.7,0.2-11.2,0.5-16.4c0.3-5.9,1-10.7,2.6-10.7
			C484.1,217.7,485.2,218.1,486.2,219.6z"/>
		<path class="st0" d="M268.9,222.9c2.8-1.5,10.4-5.1,20.5-5.1c5.2,0,5.3,2,5.3,2.9v0c-0.1,1-1.6,1.8-5.1,2h0
			c-2.3,0.5-1.5,0.2-5.1,0.8c0.1,6.9-0.1,17.2-0.4,25.1c-0.2,2.1-0.2,2.4-0.3,3.6c-0.2,2.7-1.4,3.9-3.4,3.3
			c-1.8-0.6-2.1-1.3-2.4-9.2c-0.1-3.8,0-7.8,0.2-11.3c0.4-5.2,0.8-8.4,0.9-10.4c-4.3,0.8-6.9,0.9-8.7,0.9h-0.1
			c-1.1,0-1.4-0.9-1.4-2.1V222.9z"/>
		<path class="st0" d="M492.7,222.9c2.8-1.5,10.4-5.1,20.5-5.1c5.2,0,5.3,2,5.3,2.9v0c-0.1,1-1.6,1.8-5.1,2h0
			c-2.3,0.5-1.5,0.2-5.1,0.8c0.1,6.9-0.1,17.2-0.4,25.1c-0.2,2.1-0.2,2.4-0.3,3.6c-0.2,2.7-1.4,3.9-3.4,3.3
			c-1.8-0.6-2.1-1.3-2.4-9.2c-0.1-3.8,0-7.8,0.2-11.3c0.4-5.2,0.8-8.4,0.9-10.4c-4.3,0.8-6.9,0.9-8.7,0.9h-0.1
			c-1.1,0-1.4-0.9-1.4-2.1V222.9z"/>
		<path class="st0" d="M307.3,251.6c0,1.8-2.6,3.9-4,3.9c-1.6,0-2.9-1.7-2.9-2.6c0-1,1.5-3.2,4.3-3.2c0.4,0,0.9,0.1,1.4,0.2
			C306.9,250.4,307.3,251,307.3,251.6z"/>
		<path class="st0" d="M428,216.7c0.8,0,1.9,0.4,1.9,2.3c0,23.3,0.5,22.5,0.5,27.7c0,5.1-0.9,7.8-3,7.8c-1.9,0-3.1-2.6-3.1-12.1
			c0-0.7,0-1.6,0-2.4c-1.5,0.7-5,1.3-8.2,1.5c-0.1,8.3,0,15.4-4.6,15.4c-1.5,0-1.9-8.2-1.9-17c0-10.1,0.5-21,0.5-21s1.3-1.1,2.9-1.1
			c4,0,3.3,4.7,3.3,7.6c0,2.6-0.2,6.4-0.3,11.1c2.1-0.1,6-0.5,8.2-1.5c0.4-10.9,1.2-16.4,1.2-16.4S426.6,216.7,428,216.7z"/>
		<path class="st0" d="M539.2,216.7c0.8,0,1.9,0.4,1.9,2.3c0,23.3,0.5,22.5,0.5,27.7c0,5.1-0.9,7.8-3,7.8c-1.9,0-3.1-2.6-3.1-12.1
			c0-0.7,0-1.6,0-2.4c-1.5,0.7-5,1.3-8.2,1.5c-0.1,8.3,0,15.4-4.6,15.4c-1.5,0-1.9-8.2-1.9-17c0-10.1,0.5-21,0.5-21s1.3-1.1,2.9-1.1
			c4,0,3.3,4.7,3.3,7.6c0,2.6-0.2,6.4-0.3,11.1c2.1-0.1,6-0.5,8.2-1.5c0.4-10.9,1.2-16.4,1.2-16.4S537.8,216.7,539.2,216.7z"/>
		<path class="st0" d="M201.1,232.9c1.5-8.7,3.1-12.8,4.8-14.4c0.7-0.7,1.6-0.9,2.7-0.9c0.7,0,1.6-0.1,2.8,0.7
			c2.7,1.8,3.8,24.4,5.9,31.3c0.4,1.2,0.7,2.4,0.7,3.3c0,2-1,3-3.2,3c-1.6,0-2.8-1.4-4.6-13.2c-1.2,0-4.7,0.1-6.6,0l-1.6,8.9
			c-0.4,1.8-1,2.6-2.2,2.5c-2-0.1-1.9-1.7-1.9-2.2C198.6,245.9,200,239.4,201.1,232.9z M204.5,239.2c1.2-0.2,2.2-0.2,2.8-0.2
			c0.7,0,2.5,0,2.5,0c-0.3-4.2-1.1-10.4-2-14.2C207.1,227.1,206.1,232.3,204.5,239.2z"/>
		<path class="st0" d="M459.6,232.9c1.5-8.7,3.1-12.8,4.8-14.4c0.7-0.7,1.6-0.9,2.7-0.9c0.7,0,1.6-0.1,2.8,0.7
			c2.7,1.8,3.8,24.4,5.9,31.3c0.4,1.2,0.7,2.4,0.7,3.3c0,2-1,3-3.2,3c-1.6,0-2.8-1.4-4.6-13.2c-1.2,0-4.7,0.1-6.6,0l-1.6,8.9
			c-0.4,1.8-1,2.6-2.2,2.5c-2-0.1-1.9-1.7-1.9-2.2C457.1,245.9,458.5,239.4,459.6,232.9z M463,239.2c1.2-0.2,2.2-0.2,2.8-0.2
			c0.7,0,2.5,0,2.5,0c-0.3-4.2-1.1-10.4-2-14.2C465.6,227.1,464.6,232.3,463,239.2z"/>
	</g>
</g>
</svg>
