<?xml version="1.0" encoding="utf-8"?>
<!-- Generator: Adobe Illustrator 28.0.0, SVG Export Plug-In . SVG Version: 6.00 Build 0)  -->
<svg version="1.1" id="Warstwa_1" xmlns="http://www.w3.org/2000/svg" xmlns:xlink="http://www.w3.org/1999/xlink" x="0px" y="0px"
	 viewBox="0 0 2500 1027" style="enable-background:new 0 0 2500 1027;" xml:space="preserve">
<style type="text/css">
	.st0{fill:#FFFFFF;}
</style>
<path class="st0" d="M2325.9,750.2l-1114,268.4L97.9,750.2H2325.9z"/>
<path class="st0" d="M2377.5,69.1c0,34.8,28.1,61.1,61.5,61.1s61-26.2,61-61.2c0-34.4-27.8-60.6-61-60.6S2377.5,34.5,2377.5,69.1
	 M2388.6,69.1c0-27.7,22.5-50.2,50.2-50.2c27.7,0,50.2,22.5,50.2,50.2c0,29.8-21.8,52.3-49.9,52.3c-27.8,0.1-50.3-22.4-50.4-50.1
	C2388.6,70.5,2388.6,69.8,2388.6,69.1 M2415.2,104.9h11.1V74.2h11.7l19.4,30.6h11.7L2449,73.4c10.5-1.1,18.6-6.5,18.6-19.3
	c0-13.7-8-20.4-24.9-20.4h-27.5V104.9z M2426.3,42.6h14.7c7.4,0,15.5,1.5,15.5,10.9c0,11.4-8.9,11.8-18.7,11.8h-11.6L2426.3,42.6z
	 M0,591.8h303.9v-57.1h-183V313.8H273v-57.2H120.9V65.5h177.8v-57H0V591.8z M1240.6,345.7c2.9-79.9,26-136.8,71.2-136.8
	c39.9,0,59.7,54.7,61.2,136.8H1240.6z M1475.5,388.9c0.7-16.2,0.7-20.5,0.7-30.6c0-118.7-64.4-186.1-165.3-186.1
	c-108.5,0-182.9,81.1-182.9,210.7c0,138.1,75.8,220.1,193.7,220.1c44.7,0,78.9-9.5,122.8-38.4l7.8-55.4
	c-34.6,28.2-65,38.4-96.7,38.4c-74.1,0-115.1-61.2-115.1-158.6L1475.5,388.9z M1093.9,205.4c-36.2-24.6-79.2-31.6-114.9-31.6
	c-117.3,0-197,87.9-197,221c0,125.3,77.5,206.3,190.1,206.3c41.2,0,69.9-3.9,104.5-26.9l10.8-53.6c-22.5,18.2-50.9,27.4-79.8,26.1
	c-69,0-109.3-54.6-109.3-159.4c0-105.9,35.5-165.8,91.3-168.3c46.9-2,68.8,20.7,87.3,37.9L1093.9,205.4z M1784.1,175.6
	c-8.4-0.8-12.1-0.8-17.7-0.8c-47.5,0-79.8,32.4-111.6,111.7V183.3h-102.2V592h102.2V373.5c0-47.7,35.6-87,79.3-87
	c14.8,0,27.1,2.1,45.6,12.8L1784.1,175.6z M602.3,591.8h102.4V183.2H602.3v232.9c0,71.7-21.1,112.6-67.4,112.6
	c-44.8,0-64.4-33.5-64.4-84.5V183.3H368.1v272.2c0,115.4,57,143.9,120.6,143.9c53.9,0,90.8-31.1,113.6-69.9V591.8z M2065.4,591.8
	h102.4V367.7c0-111.2,41.2-121.2,65-121.2c31.1,0,61.2,21.1,61.2,97.1v248.2h102.4V309.9c0-112.4-66.8-136.1-115.9-136.1
	c-43.9,0-84.9,25.4-112.8,70.9v-61.2h-102.4L2065.4,591.8z M1852.1,8.3h106.1v106.2h-106.1V8.3z M1851.2,591.8h107.7V183.2h-107.7
	V591.8z"/>
</svg>
