<svg xmlns="http://www.w3.org/2000/svg" viewBox="0 0 608.1 365.5" style="enable-background:new 0 0 608.1 365.5" xml:space="preserve"><style>.st0{fill:#fff}</style><g id="Layer_3"><path class="st0" d="m182 139.6-4 .4-4.5 29.5 17-2-8.5-27.9zm0 0-4 .4-4.5 29.5 17-2-8.5-27.9zm0 0-4 .4-4.5 29.5 17-2-8.5-27.9zm0 0-4 .4-4.5 29.5 17-2-8.5-27.9zm356.2-64.4-38.5 4-6.8-54.2-119.4 13-1.2-8.9-67 6.5-1.9 34-94.6 10.9-3.7-10.5-53 5.7-8.5-27.1L20.9 61.1l23.9 195.5 438 86.8 104.4-143.5-49-124.7zM57.3 242.8 36.7 73.6l94.7-9.7 4.9 40.1-52.3 5.7 3.2 27.5 40.9-4 4 32-40.9 4 8.1 69.2-42 4.4zM208.7 227l-8.5-27.9-31.6 3.6L163 244l-36.4 4 29.5-158.7 39.3-4.1 48.6 138-35.3 3.8zm133.2-13.7L296.5 157l-4 .4 8.9 72.5-42.1 4.5L241.5 91l44.1-4.9 39.7 42.1 4.1-.4-9.7-78.9 42.1-4.5L382 209.2l-40.1 4.1zm125.5-.8-46.1 4.9-15.5-128-23.8 2.4-4.9-40.1 103.6-10.9 4.9 40.1-33.6 3.7 15.4 127.9zm63.5-40.9-20.2 2.4 1.2 21.5-28.3 2.8-.8-102.8 46.2-4.9 38.9 98.8-29.2 3.2-7.8-21zM509.1 121l1.2 28.7 11.7-1.6-8.9-27.5-4 .4zm-331.2 19-4.5 29.5 17-2-8.5-27.9-4 .4zm4.1-.4-4 .4-4.5 29.5 17-2-8.5-27.9zm0 0-4 .4-4.5 29.5 17-2-8.5-27.9z"/><path class="st0" d="m512.5 29.4.3 2.3 1.2-.1c.9-.1 1.4-.6 1.3-1.4-.1-.8-.7-1-1.6-.9l-1.2.1zm1.6 4.8-.9.1.5 3.6-3.5.4-1.4-11.2 5.1-.7c2.8-.4 4.8 1 5.1 3.2.2 1.3-.4 2.6-1.6 3.4l2.7 4-3.9.5-2.1-3.3zm.8 6.6c4.7-.6 7.8-4.3 7.2-9.4-.6-5-4.6-7.9-9.3-7.3-4.7.6-7.8 4.4-7.1 9.4.6 5.1 4.5 7.9 9.2 7.3zm-11.5-7c-.8-6.1 3.3-10.9 9.1-11.7 5.8-.7 11 2.9 11.8 9 .8 6.1-3.3 10.9-9.2 11.7-5.7.8-10.9-2.9-11.7-9zM522 148.1l-11.7 1.6-1.2-28.7 4-.4zM190.5 167.5l-17 2.1 4.4-29.6 4.1-.4z"/><path class="st0" d="m190.5 167.5-17 2.1 4.4-29.6 4.1-.4zM522 148.1l-11.7 1.6-1.2-28.7 4-.4z"/></g></svg>