<?xml version="1.0" encoding="utf-8"?>
<!-- Generator: Adobe Illustrator 28.0.0, SVG Export Plug-In . SVG Version: 6.00 Build 0)  -->
<svg version="1.1" xmlns="http://www.w3.org/2000/svg" xmlns:xlink="http://www.w3.org/1999/xlink" x="0px" y="0px"
	 viewBox="0 0 608.1 365.5" style="enable-background:new 0 0 608.1 365.5;" xml:space="preserve">
<style type="text/css">
	.st0{fill:#FFFFFF;}
</style>
<g id="Layer_2">
</g>
<g id="Layer_1">
</g>
<g id="Layer_3">
	<g>
		<path class="st0" d="M182,139.6l-4,0.4l-4.5,29.5l17-2L182,139.6z M182,139.6l-4,0.4l-4.5,29.5l17-2L182,139.6z M182,139.6l-4,0.4
			l-4.5,29.5l17-2L182,139.6z M182,139.6l-4,0.4l-4.5,29.5l17-2L182,139.6z M538.2,75.2l-38.5,4L492.9,25L373.5,38l-1.2-8.9l-67,6.5
			l-1.9,34l-94.6,10.9L205.1,70l-53,5.7l-8.5-27.1L20.9,61.1l23.9,195.5l438,86.8l104.4-143.5L538.2,75.2z M57.3,242.8L36.7,73.6
			l94.7-9.7l4.9,40.1L84,109.7l3.2,27.5l40.9-4l4,32l-40.9,4l8.1,69.2L57.3,242.8z M208.7,227l-8.5-27.9l-31.6,3.6L163,244l-36.4,4
			l29.5-158.7l39.3-4.1l48.6,138L208.7,227z M341.9,213.3L296.5,157l-4,0.4l8.9,72.5l-42.1,4.5L241.5,91l44.1-4.9l39.7,42.1l4.1-0.4
			l-9.7-78.9l42.1-4.5L382,209.2L341.9,213.3z M467.4,212.5l-46.1,4.9L405.8,89.4L382,91.8l-4.9-40.1l103.6-10.9l4.9,40.1L452,84.6
			L467.4,212.5z M530.9,171.6l-20.2,2.4l1.2,21.5l-28.3,2.8l-0.8-102.8l46.2-4.9l38.9,98.8l-29.2,3.2L530.9,171.6z M509.1,121
			l1.2,28.7l11.7-1.6l-8.9-27.5L509.1,121z M177.9,140l-4.5,29.5l17-2l-8.5-27.9L177.9,140z M182,139.6l-4,0.4l-4.5,29.5l17-2
			L182,139.6z M182,139.6l-4,0.4l-4.5,29.5l17-2L182,139.6z"/>
		<path class="st0" d="M512.5,29.4l0.3,2.3l1.2-0.1c0.9-0.1,1.4-0.6,1.3-1.4c-0.1-0.8-0.7-1-1.6-0.9L512.5,29.4z M514.1,34.2
			l-0.9,0.1l0.5,3.6l-3.5,0.4l-1.4-11.2l5.1-0.7c2.8-0.4,4.8,1,5.1,3.2c0.2,1.3-0.4,2.6-1.6,3.4l2.7,4l-3.9,0.5L514.1,34.2z
			 M514.9,40.8c4.7-0.6,7.8-4.3,7.2-9.4c-0.6-5-4.6-7.9-9.3-7.3c-4.7,0.6-7.8,4.4-7.1,9.4C506.3,38.6,510.2,41.4,514.9,40.8
			L514.9,40.8z M503.4,33.8c-0.8-6.1,3.3-10.9,9.1-11.7c5.8-0.7,11,2.9,11.8,9c0.8,6.1-3.3,10.9-9.2,11.7
			C509.4,43.6,504.2,39.9,503.4,33.8L503.4,33.8z"/>
	</g>
	<polygon class="st0" points="522,148.1 510.3,149.7 509.1,121 513.1,120.6 	"/>
	<polygon class="st0" points="190.5,167.5 173.5,169.6 177.9,140 182,139.6 	"/>
	<polygon class="st0" points="190.5,167.5 173.5,169.6 177.9,140 182,139.6 	"/>
	<polygon class="st0" points="522,148.1 510.3,149.7 509.1,121 513.1,120.6 	"/>
</g>
</svg>
