<?xml version="1.0" encoding="utf-8"?>
<!-- Generator: Adobe Illustrator 28.0.0, SVG Export Plug-In . SVG Version: 6.00 Build 0)  -->
<svg version="1.1" id="Warstwa_1" xmlns="http://www.w3.org/2000/svg" xmlns:xlink="http://www.w3.org/1999/xlink" x="0px" y="0px"
	 viewBox="0 0 311.8 101.6" style="enable-background:new 0 0 311.8 101.6;" xml:space="preserve">
<style type="text/css">
	.st0{clip-path:url(#SVGID_00000137120169590461022450000018021562359510049412_);}
	.st1{clip-path:url(#SVGID_00000016766034259095127660000001501937144648921225_);}
	.st2{fill:#FFFFFF;}
</style>
<g>
	<defs>
		<path id="SVGID_1_" d="M29.8,50.3c0,16.6,13.5,30.1,30.1,30.1c9.3,0,17.6-4.2,23.1-10.9l6.3-14.2h0.2c0.3-1.6,0.4-3.3,0.4-5
			c0-16.6-13.5-30.1-30.1-30.1C43.2,20.2,29.8,33.7,29.8,50.3"/>
	</defs>
	<clipPath id="SVGID_00000018230217438615618070000016815787083323223972_">
		<use xlink:href="#SVGID_1_"  style="overflow:visible;"/>
	</clipPath>
	<g style="clip-path:url(#SVGID_00000018230217438615618070000016815787083323223972_);">
		<defs>
			
				<rect id="SVGID_00000168817166497006341800000000404665211480901526_" x="-13.8" y="-13.5" transform="matrix(1.522301e-02 -0.9999 0.9999 1.522301e-02 6.8631 102.9143)" width="139" height="123"/>
		</defs>
		<clipPath id="SVGID_00000169544907294958194110000013243155383428580799_">
			<use xlink:href="#SVGID_00000168817166497006341800000000404665211480901526_"  style="overflow:visible;"/>
		</clipPath>
		
			<g id="FeuilleGarnier_CMJN.tif_00000114781549075292920960000009861354793808505016_" style="clip-path:url(#SVGID_00000169544907294958194110000013243155383428580799_);">
			<g>
				<defs>
					
						<rect id="SVGID_00000114760112029836169260000012512791365643691434_" x="-9.9" y="-17.7" transform="matrix(1.522734e-02 -0.9999 0.9999 1.522734e-02 6.8629 102.9141)" width="131.2" height="131.3"/>
				</defs>
				<clipPath id="SVGID_00000091012042469996978160000005801894104609000890_">
					<use xlink:href="#SVGID_00000114760112029836169260000012512791365643691434_"  style="overflow:visible;"/>
				</clipPath>
				<g style="clip-path:url(#SVGID_00000091012042469996978160000005801894104609000890_);">
					
						<image style="overflow:visible;" width="945" height="945" xlink:href="60126BE0.png"  transform="matrix(2.114109e-03 -0.1389 -0.1389 -2.115723e-03 120.3218 114.5839)">
					</image>
				</g>
			</g>
		</g>
	</g>
</g>
<path class="st2" d="M94.1,30.8L76.6,69.5H83l6.3-14.2h14.6l6.3,14.2h6.5L99.2,30.8H94.1z M91.8,49.7l4.8-10.8l4.8,10.8H91.8z"/>
<polygon class="st2" points="181.4,58.5 159.8,31.1 154.5,31.1 154.5,69.5 160.4,69.5 160.4,41.4 182.6,69.5 187.3,69.5 187.3,31.1 
	181.4,31.1 "/>
<rect x="194" y="31.1" class="st2" width="6" height="38.4"/>
<path class="st2" d="M79.7,50.3c0-0.9-0.1-1.8-0.2-2.7H51.8V53h21.9c-1.3,6.5-7,11.4-13.9,11.4c-7.8,0-14.1-6.3-14.1-14.1
	S52,36.2,59.8,36.2c4.6,0,8.7,2.2,11.3,5.7h6.6c-3.2-6.7-10-11.4-18-11.4c-11,0-19.8,8.9-19.8,19.8s8.9,19.8,19.8,19.8
	c10,0,18.3-7.4,19.7-17.1C79.6,52.1,79.7,51.2,79.7,50.3"/>
<path class="st2" d="M224.7,30.4c-11,0-19.8,8.9-19.8,19.8c0,11,8.9,19.8,19.8,19.8c7.9,0,14.8-4.7,18-11.4H236
	c-2.6,3.4-6.7,5.7-11.3,5.7c-7.8,0-14.1-6.3-14.1-14.1c0-7.8,6.3-14.1,14.1-14.1c6.9,0,12.6,4.9,13.9,11.4h-21.9V53h27.7
	c0.1-0.9,0.2-1.8,0.2-2.7c0-0.9-0.1-1.8-0.2-2.7C243,37.9,234.7,30.4,224.7,30.4"/>
<path class="st2" d="M282,69.5L272.8,54c4.4-1.8,7.4-5.5,7.4-10.9c0-7.8-6.3-12.1-14.1-12.1h-16.7v38.4h6V55.3h10.6
	c0.2,0,0.3,0,0.5,0l8.2,14.2H282z M255.4,36.7h10.6c4.1,0,7.5,1.8,7.5,6.5s-3.3,6.5-7.5,6.5h-10.6V36.7z"/>
<path class="st2" d="M149.5,43.2c0-6.7-5.4-12.1-12.1-12.1h-18.7v38.4h6V55.3h11.1l8.2,14.2h7.3l-9.1-15.2
	C146.5,52.4,149.5,48.1,149.5,43.2 M124.7,36.7h12.6c3.6,0,6.5,2.9,6.5,6.5c0,3.6-2.9,6.5-6.5,6.5h-12.6V36.7z"/>
</svg>
