<?xml version="1.0" encoding="utf-8"?>
<!-- Generator: Adobe Illustrator 28.0.0, SVG Export Plug-In . SVG Version: 6.00 Build 0)  -->
<svg version="1.1" xmlns="http://www.w3.org/2000/svg" xmlns:xlink="http://www.w3.org/1999/xlink" x="0px" y="0px"
	 viewBox="0 0 608.1 365.5" style="enable-background:new 0 0 608.1 365.5;" xml:space="preserve">
<style type="text/css">
	.st0{clip-path:url(#SVGID_00000116913806206471148460000006051207430771536007_);}
	.st1{fill:#FFFFFF;}
</style>
<g id="Layer_2">
</g>
<g id="Layer_1">
</g>
<g id="Layer_3">
	<g>
		<defs>
			<path id="SVGID_1_" d="M73.9,183.7c7.2-4.8,13.1-11.3,17.2-18.9c4.6-8.1,7-17.3,7-26.6v-0.7h-8.2v0.7c0,8.8-2.5,17.5-7.3,24.9
				c-4.5,7.2-10.9,13-18.5,16.9c-3.3-0.9-6.6-1.4-10-1.7v-40.8h-8.2v96.1h8.2v-47.2c11.5,0.9,22.2,6.1,30,14.6
				c8.3,8.6,12.8,20,12.7,31.9v0.7h8.1v-0.7c0-10.7-3-21.1-8.9-30C90.4,194.8,82.8,188.1,73.9,183.7L73.9,183.7z M113,137.6h8.2
				v96.1H113V137.6z M176.6,176.8l-47.4-40.7v97.6h8.2v-79.9l39.2,33.7v46.3h8.2v-96.1h-8.2V176.8z M327,166.1h13.5v59.5
				c-10.4,0-20.3-4.3-27.6-11.7c-7.6-7.4-11.8-17.6-11.7-28.2c-0.1-10.6,4.1-20.8,11.7-28.2c7.4-7.7,17.6-11.9,28.2-11.8h0.7v-8.1
				h-0.7c-12.8-0.2-25.1,4.9-34,14.1c-9.2,8.9-14.3,21.2-14.1,34c-0.2,12.8,4.9,25.1,14.1,34c8.9,9.2,21.2,14.3,34,14.1h7.5v-75.9
				h-21.7L327,166.1L327,166.1L327,166.1z M399.9,195.5c3.8-5.9,5.7-12.8,5.7-19.9c0.2-10.1-3.9-19.8-11.1-26.8
				c-7-7.2-16.8-11.2-26.8-11.1h-10.9v96.1h8.2v-20.3h2.6c3.5,0,6.9-0.5,10.2-1.4l19.9,21.7h11.1l-22.9-25
				C391.7,205.6,396.5,201,399.9,195.5L399.9,195.5z M365,145.7h2.6c7.9-0.1,15.6,3.1,21.1,8.8c5.7,5.5,8.9,13.1,8.8,21.1
				c0.1,7.9-3.1,15.6-8.8,21.1c-5.5,5.7-13.1,8.8-21.1,8.7H365V145.7z M416.7,233.8h8.6l14.7-47.4h15l14.7,47.4h8.6l-30.8-99.1
				L416.7,233.8z M442.4,178.2l5-16.1l5,16.1H442.4L442.4,178.2z M524.3,168.1l-37.9-31.8v97.5h8.2v-80l29.8,25l29.8-25v80h8.1
				v-97.5L524.3,168.1L524.3,168.1z M243.7,194.3c4.8-2.6,6.6-8.6,4-13.4c0,0,0,0,0,0c-2.6-4.8-8.6-6.5-13.4-3.9
				c-4.8,2.6-6.6,8.5-4,13.3C232.9,195.2,238.9,197,243.7,194.3C243.7,194.4,243.7,194.4,243.7,194.3L243.7,194.3z M231.9,185.7
				c0-3.9,3.2-7.1,7.1-7c3.9,0,7.1,3.2,7,7.1c0,3.9-3.2,7-7.1,7C235.1,192.8,231.9,189.6,231.9,185.7L231.9,185.7z M302.3,225.6
				h-36.4c22-14.8,27.9-44.7,13.1-66.7s-44.7-27.9-66.7-13.1c-13.4,9-21.4,24.1-21.2,40.3c0.2,26.2,22.7,47.7,49,47.7h73.7
				c-2.4-1.2-4.6-2.6-6.7-4.2C304.5,227.7,302.3,225.6,302.3,225.6L302.3,225.6z M278.2,185.7c0,5.7-4.6,10.4-10.4,10.4
				s-10.4-4.6-10.4-10.4c0-5.7,4.6-10.4,10.4-10.4l0,0C273.6,175.3,278.2,180,278.2,185.7C278.2,185.7,278.2,185.7,278.2,185.7z
				 M253.8,149.5c5.7,0,10.4,4.6,10.4,10.4c0,5.7-4.6,10.4-10.4,10.4c-5.7,0-10.4-4.6-10.4-10.4C243.4,154.2,248,149.5,253.8,149.5
				C253.8,149.5,253.8,149.5,253.8,149.5z M224.3,149.5c5.7,0,10.4,4.6,10.4,10.4c0,5.7-4.6,10.4-10.4,10.4s-10.4-4.6-10.4-10.4
				C213.9,154.2,218.6,149.5,224.3,149.5C224.3,149.5,224.3,149.5,224.3,149.5z M199.8,185.7c0-5.7,4.6-10.4,10.4-10.4
				s10.4,4.6,10.4,10.4c0,5.7-4.6,10.4-10.4,10.4l0,0C204.5,196.1,199.8,191.5,199.8,185.7C199.8,185.7,199.8,185.7,199.8,185.7z
				 M224.3,221.8c-5.7,0-10.4-4.6-10.4-10.4s4.6-10.4,10.4-10.4s10.4,4.6,10.4,10.4l0,0C234.7,217.2,230.1,221.8,224.3,221.8
				C224.3,221.8,224.3,221.8,224.3,221.8z M235.8,197c-3-0.8-5.6-2.9-7.1-5.6c-1.5-2.7-1.8-6-0.9-9c0.8-3,2.9-5.6,5.6-7.1
				c5.7-3.1,12.8-1.1,16,4.6c1.5,2.8,1.9,6,1,9c-0.8,3-2.9,5.6-5.6,7.1c-1.7,0.9-3.7,1.4-5.6,1.4C238,197.4,236.9,197.3,235.8,197
				L235.8,197z M253.8,221.8c-5.7,0-10.4-4.6-10.4-10.4s4.6-10.4,10.4-10.4c5.7,0,10.4,4.6,10.4,10.4l0,0
				C264.2,217.2,259.5,221.8,253.8,221.8C253.8,221.8,253.8,221.8,253.8,221.8L253.8,221.8z"/>
		</defs>
		<use xlink:href="#SVGID_1_"  style="overflow:visible;fill:#FFFFFF;"/>
		<clipPath id="SVGID_00000129909882590434785400000016906682195829428903_">
			<use xlink:href="#SVGID_1_"  style="overflow:visible;"/>
		</clipPath>
		
			<g id="KInogram_Gradient_00000016075048252460663060000017241513259989731478_" style="clip-path:url(#SVGID_00000129909882590434785400000016906682195829428903_);">
			
				<rect id="Rectangle_362_00000039103644096467465120000006709793445567797435_" x="45.9" y="134.7" class="st1" width="516.3" height="99.1"/>
		</g>
	</g>
</g>
</svg>
