<?xml version="1.0" encoding="utf-8"?>
<!-- Generator: Adobe Illustrator 28.0.0, SVG Export Plug-In . SVG Version: 6.00 Build 0)  -->
<svg version="1.1" xmlns="http://www.w3.org/2000/svg" xmlns:xlink="http://www.w3.org/1999/xlink" x="0px" y="0px"
	 viewBox="0 0 629.3 396.9" style="enable-background:new 0 0 629.3 396.9;" xml:space="preserve">
<style type="text/css">
	.st0{display:none;}
	.st1{fill:#FFFFFF;}
</style>
<g id="poprawiony_OK" class="st0">
</g>
<g id="Layer_1">
	<path class="st1" d="M316.2,203.2l18,25.6h11l-19-25.9c0,0,16.4-3.4,16.4-19.4c0,0-0.2-17.7-22.8-17.7h-40.2v63h9.1v-26.2h25.1
		C313.7,202.5,315.6,202.4,316.2,203.2z M288.6,173h25.9c0,0,17.8-0.8,17.8,11c0,12.6-17.8,11-17.8,11h-25.9V173z"/>
	<path class="st1" d="M168.6,165.3c-4.1,6.9-6.1,15.3-9.2,22.5l6.4,0l11.4-22.3C174.5,165.5,171.3,165.7,168.6,165.3z"/>
	<path class="st1" d="M225.2,155c-23.7,0-43,16.1-43,39.8c0,23.7,19.2,39.6,42.9,39.6c23.7,0,42.9-15.9,42.9-39.6
		C267.9,171.4,248.9,155,225.2,155z M225.1,226.3c-18,0-32.5-13.6-32.5-31.6c0-18,14.6-31.7,32.5-31.7c18,0,32.5,13.8,32.5,31.7
		C257.6,212.7,243.1,226.3,225.1,226.3z"/>
	<polygon class="st1" points="413.1,221.7 365.9,221.7 365.9,199.9 401.3,199.9 401.3,193 365.8,193 365.8,172.4 413.1,172.4 
		413.1,165.7 356.4,165.7 356.4,228.8 413.1,228.8 	"/>
	<polygon class="st1" points="378.4,164 402.4,155.4 386,155.4 	"/>
	<path class="st1" d="M449.1,165.8l-31.6,63h9.9l8.4-16h38.7l8.4,16h9.6l-31.3-63H449.1z M440.2,204.8l14.6-30.3l15.2,30.3H440.2z"
		/>
	<polygon class="st1" points="508.1,221.5 508.1,165.8 499.2,165.8 499.2,228.6 555.9,228.6 555.9,221.5 	"/>
	<polygon class="st1" points="127.2,165.8 118.1,165.8 118.1,228.8 174.8,228.8 174.8,221.8 127.2,221.8 	"/>
	<path class="st1" d="M279.7,235.9h-15.1v24h4.5v-10.1h10.6c7.3,0,10-3.8,10-7.1C289.6,238.7,285.9,235.9,279.7,235.9z M278.1,247
		h-9v-8.3h9.2c3.7,0,6.6,1,6.6,4C285,245.9,282.2,247,278.1,247z"/>
	<path class="st1" d="M357,242.6c0-3.9-3.7-6.7-9.9-6.7H332v24h4.5v-10.1h9.2c0.2,0,0.3,0.1,0.4,0.2l6.8,9.7h5.1l-7.6-10.3
		C355.2,248.4,357,245.4,357,242.6z M345.6,247h-9v-8.3h9.2c3.7,0,6.6,1,6.6,4C352.4,245.9,349.6,247,345.6,247z"/>
	<path class="st1" d="M304.8,235.9l-14,24h5.2l3.9-7h14.9l3.7,7h5.5l-13.4-24H304.8z M301.4,250l5.9-10.5h0.1L313,250H301.4z"/>
	<path class="st1" d="M401.6,246.9l-9.2-1.6c-1.9-0.3-3.8-1-3.8-3c0-3.6,4.6-4.2,7.4-4.2c3.6,0,7.8,1.2,8,4.9h4.1
		c-0.2-2.6-1.3-7.6-12.6-7.6c-7.8,0-11.1,3.7-11.1,7.4c0,4.2,4.8,5.3,6.9,5.6l6.6,1.1c5.3,0.9,6.9,1.7,6.9,4.2c0,3.4-5.3,4-8.5,4
		c-4.1,0-8.9-1.3-8.9-5.6h-4.1c0,2.2,0.5,4.2,3.3,6.1c1.4,1,3.8,2.3,9.8,2.3c5.5,0,12.7-1.6,12.7-7.2
		C408.9,249.5,405.8,247.7,401.6,246.9z"/>
	<rect x="368.7" y="236" class="st1" width="4.3" height="4.3"/>
	<rect x="368.7" y="242.9" class="st1" width="4.3" height="17.1"/>
</g>
</svg>
