<?xml version="1.0" encoding="utf-8"?>
<!-- Generator: Adobe Illustrator 28.0.0, SVG Export Plug-In . SVG Version: 6.00 Build 0)  -->
<svg version="1.1" id="Warstwa_1" xmlns="http://www.w3.org/2000/svg" xmlns:xlink="http://www.w3.org/1999/xlink" x="0px" y="0px"
	 viewBox="0 0 841.9 595.3" style="enable-background:new 0 0 841.9 595.3;" xml:space="preserve">
<style type="text/css">
	.st0{fill:#FFFFFF;}
</style>
<g>
	<g>
		<path class="st0" d="M273.6,308.3V377h-17l0-63.4c0-19.3-9-30.9-24.5-30.9c-15.8,0-28.8,15.1-28.8,34.8V377h-16.6v-63.4
			c0-19.4-9-30.9-24.6-30.9c-15.8,0-28.8,15.1-28.8,34.8V377h-17V269.6h12.3l2.8,14.7c8.3-10.7,21-17.1,34.6-17.1
			c15.3,0,27.2,7.8,33.1,20.4c8-12.6,21.7-20.4,36.6-20.4C258.5,267.2,273.6,284.3,273.6,308.3z"/>
		<path class="st0" d="M407.4,269.6V377h-14.1l-1.8-16.3c-10,11.6-24.9,18.6-42.4,18.6c-32,0-55.9-24.1-55.9-56.1
			c0-32.2,24-56.1,55.9-56.1c17.7,0,32.7,7.1,42.6,18.8l2.1-16.5H407.4z M390.1,323.3c0-22.8-16.7-39.7-39.6-39.7
			c-22.9,0-39.8,17.1-39.8,39.7c0,22.6,17,39.7,39.8,39.7C373.3,363,390.1,346.1,390.1,323.3z"/>
		<path class="st0" d="M496.3,361.3V377h-14c-23.2,0-37.6-14.3-37.6-37.6v-54.6h-19v-3l33.4-35h2.7v22.7h33.9v15.3h-33.9v54.1
			c0,14.5,8,22.5,22.7,22.5H496.3z"/>
		<path class="st0" d="M575.9,269v16h-11c-19.8,0-30.9,12.7-30.9,33.6V377h-17V269.6H529l2.8,16.4c7.7-11,19-16.9,34.5-16.9H575.9z"
			/>
		<path class="st0" d="M591.5,231.6h18.4V251h-18.4V231.6z M592.2,269.6h17V377h-17V269.6z"/>
		<path class="st0" d="M706.7,377l-31-44.8L644.5,377h-18.7l39.6-55.8l-36.3-51.6h19.1l27.6,39.7l28.1-39.7h18.7l-36.7,50.8
			l39.8,56.6H706.7z"/>
	</g>
</g>
</svg>
