<?xml version="1.0" encoding="utf-8"?>
<!-- Generator: Adobe Illustrator 28.0.0, SVG Export Plug-In . SVG Version: 6.00 Build 0)  -->
<svg version="1.1"
	 id="Layer_1" xmlns:svg="http://www.w3.org/2000/svg" xmlns:rdf="http://www.w3.org/1999/02/22-rdf-syntax-ns#" xmlns:cc="http://creativecommons.org/ns#" xmlns:dc="http://purl.org/dc/elements/1.1/"
	 xmlns="http://www.w3.org/2000/svg" xmlns:xlink="http://www.w3.org/1999/xlink" x="0px" y="0px" viewBox="0 0 6366 1070.3"
	 style="enable-background:new 0 0 6366 1070.3;" xml:space="preserve">
<style type="text/css">
	.st0{fill:#FFFFFF;}
</style>
<polygon id="polygon904" class="st0" points="554.5,675.9 483.2,675.9 483.2,385.4 273,628.9 71.5,386 71.5,675.9 0,675.9 0,300.5 
	82.9,300.5 273.6,527.1 466.3,300.5 554.5,300.5 "/>
<polygon id="polygon906" class="st0" points="2570.4,357.6 2191.7,357.6 2191.7,456.9 2426.8,456.9 2426.8,512.7 2191.7,512.7 
	2191.7,675.9 2116.1,675.9 2116.1,300.5 2570.5,300.5 "/>
<polygon id="polygon908" class="st0" points="4191,357.6 3970.1,357.6 3970.1,675.9 3894.3,675.9 3894.3,357.6 3672.9,357.6 
	3672.9,300.5 4191,300.5 "/>
<path id="path910" class="st0" d="M4504.9,294.6c-173.8,0-311.4,81.6-311.4,193.2s140.8,193.2,312,193.2s311.3-80.8,311.3-193.2
	S4678.5,294.6,4504.9,294.6z M4505.4,620.6c-131.5,0-234.2-57.5-234.2-132.8c0-75.4,102.8-132.7,233.8-132.7
	c130.8,0,234.1,55.8,234.1,132.7S4636.9,620.6,4505.4,620.6L4505.4,620.6z"/>
<path id="path912" class="st0" d="M3364.6,294.7c-173,0-309.4,82-309.4,193.1c0,111.3,137.4,193.4,309.4,193.4
	c114.9,0,213.6-36.7,268.3-92.4l-58.9-40c-37.3,43.7-116.9,71.8-209.3,71.8c-130.6,0-232.8-56.4-232.8-132.9
	c0-76.2,103.4-132.7,232.8-132.7c80.4,0,150.1,22.8,190.8,54.5l58.6-39.8C3557.8,323.6,3467.8,294.7,3364.6,294.7z"/>
<path id="path914" class="st0" d="M1118.9,675.9h84.7L938.5,300.5H877L611.8,675.9h84.6l84.4-119.4h253.8L1118.9,675.9z M819.7,501
	l88-124.8L995.6,501L819.7,501z"/>
<path id="path916" class="st0" d="M2967.9,675.9h84.5l-265.2-375.4h-61.6l-265.1,375.4h84.7l84.3-119.4h253.9L2967.9,675.9z
	 M2668.6,501l87.9-124.8l87.9,124.8L2668.6,501z"/>
<polygon id="polygon918" class="st0" points="1586.4,479.8 1806.4,300.5 1705.7,300.5 1535.9,438.8 1366.3,300.5 1265.5,300.5 
	1485.6,479.8 1245.7,675.9 1346.4,675.9 1535.9,520.9 1725.6,675.9 1826.4,675.9 "/>
<path id="path920" class="st0" d="M4890,299.1v376.8h75.7V525.5h207.2l149,150.3h90L5262.8,524c67,0.1,138.1-51.7,138.1-111.6
	s-62.4-113.3-161.3-113.3L4890,299.1L4890,299.1z M4965.6,357.4h284.8c31.7,0,73.3,20.4,73.3,55.8c0,42.7-42.8,56.2-80,56.2h-278.1
	L4965.6,357.4L4965.6,357.4z"/>
<path id="path922" class="st0" d="M6200.6,735.8c-4.8-4.3-9.7-8.8-14.3-13.3c0,0-25-24.1-37-38.5c-3.5-4.4-58.7-70.5-58.7-70.5
	l-38.6-46c-17-20.3-32.1-39.1-46.2-57.3c-11.8-15.4-27.3-27.1-22.8-44.9c4.2-17.6,68.2-99.5,98.8-136.7c0,0,24.9-29.8,60.5-72.4v0.4
	C6208.3,178,6312,55.6,6366,0c0,0-56.5,3.4-116.2,66.6c-29.4,31.2-296.4,303.2-305.7,311.3c-13.9,12.2-25.4,8.3-35.6-1.5
	c-7.9-7.6-34.3-42.2-49-64.8c-19.2-29.7-40-59.2-55.2-91.2c-0.8-1.9-1.7-3.3-2.3-4.6l0-0.2l-0.1-0.2l-1.1-2
	c-4.3-8.8-6.3-12.4-7.6-18.7c-1.3-5.6-2.6-14.1-5.2-31.3l-0.8-6.1l-0.2-0.2v-0.3c-3.1-38.9-12.8-67.7-28.7-86
	c-14-16.4-30-19.6-35.4-20.2c-0.2,0-0.4,0-0.6,0c-2.2-0.3-4.5-0.3-6.7-0.2c-21,2.9-38.6,15.7-52.5,38.4c-2.6,4.7-4.7,9.7-6.5,14.7
	c-3.7,10.1-6.3,20.6-7.8,31.3c-3.1,24.8,1.6,46.1,13.8,63.4c7.1,8.8,19.5,20.1,31.6,31.1c8.4,7.8,16.3,14.9,22.4,21
	c27.1,28,48.2,60.7,70,92.6c16.4,24.2,35.2,47,51.5,71.4c3.6,5.9,7.1,11.2,9.9,16.1c0.4,0.6,0.8,1.2,1.1,1.9l0,0
	c12,19.8,16.2,33,0.3,56.2c-6.7,10-36.5,47.1-52.3,67.2c-24,30.7-47.7,61.5-71.1,92.3c-44,57.7-86.9,116.3-124.8,177.6
	c-20.2,32.6-49.1,70.7-47.1,110.9c3.3,69,82.7,72.6,126.9,38.4c18.4-14.2,28.5-28.2,16.1-37.7c-23.4-17.7-18.9-44.9,17.6-113.2
	c13.3-25.4,109.4-155.1,186.3-257.3c0,0,8.6-11.4,8.4-11.1c3.4-4.5,9.2-10.8,18-10.8c8.5-0.1,14.8,10.8,20.4,18
	c41.9,55.3,58.6,78.6,95.3,136.2c10.6,16.6,25.3,45.3,34.7,64.5c-0.1,0-0.2-0.1-0.3-0.2l0.2,0.1c11.2,19.8,20.6,40.5,28,62
	c7.4,20.4,15.5,43.3,36.3,59.6c9.3,7.1,20.4,11.4,32.1,12.5c0.3,0,0.4,0,0.6,0c37.8,3.2,70.5-26,74.3-66.4c0.3-2.8,0.4-5.7,0.4-8.6
	c-0.6-23-9.6-45-27.6-66.7C6217.1,751.2,6209.1,743.7,6200.6,735.8z"/>
</svg>
