<?xml version="1.0" encoding="utf-8"?>
<!-- Generator: Adobe Illustrator 28.0.0, SVG Export Plug-In . SVG Version: 6.00 Build 0)  -->
<svg version="1.1" id="Warstwa_1" xmlns="http://www.w3.org/2000/svg" xmlns:xlink="http://www.w3.org/1999/xlink" x="0px" y="0px"
	 viewBox="0 0 566.9 283.5" style="enable-background:new 0 0 566.9 283.5;" xml:space="preserve">
<style type="text/css">
	.st0{fill:#FFFFFF;}
</style>
<g>
	<path class="st0" d="M62.8,97.8c0,0-13.1,24.8-17.1,32.3c-4-7.5-17.1-32.3-17.1-32.3l-0.4-0.7l-8.4,0l0,45.2l8.3,0l0-27.4
		l14.6,27.4h6l14.5-27.4l0,27.4h8.3l0-45.2h-8.4L62.8,97.8L62.8,97.8z"/>
	<path class="st0" d="M171.7,97.6c0,0-11.1,13.9-14.6,18.2c-3.4-4.3-14.3-18.2-14.3-18.2l-0.4-0.5l-10.9,0l1.6,2
		c0,0,17.4,21.7,19.8,24.7l0,18.4h8.3l0-18.4c2.4-3,19.8-24.7,19.8-24.7l1.6-2l-10.6,0L171.7,97.6L171.7,97.6z"/>
	<polygon class="st0" points="260.9,123 288.3,123 288.3,115 260.9,115 260.9,105.1 289.5,105.1 289.5,97.1 252.6,97.2 252.6,142.3 
		289.8,142.3 289.8,134.4 260.9,134.4 260.9,123 	"/>
	<polygon class="st0" points="318.9,97.1 310.6,97.1 310.7,142.3 344.8,142.3 344.8,134.3 318.9,134.4 318.9,97.1 	"/>
	<polygon class="st0" points="370.2,97.1 361.9,97.1 361.9,142.3 396.1,142.3 396.1,134.3 370.2,134.3 370.2,97.1 	"/>
	<polygon class="st0" points="412.6,142.3 420.9,142.3 420.9,97.1 412.6,97.1 412.6,142.3 	"/>
	<path class="st0" d="M474.4,128c-6.5-7.9-24.9-30.4-24.9-30.4l-0.4-0.5h-7.4l0,45.2l8.3,0l0-30.9c6.5,8,24.9,30.4,24.9,30.4
		l0.4,0.5h7.4l0-45.2h-8.3L474.4,128L474.4,128z"/>
	<polygon class="st0" points="511.6,134.3 511.6,123 539,123 539,115 511.6,115 511.6,105.1 540.2,105.1 540.2,97.1 503.3,97.1 
		503.3,142.3 540.5,142.3 540.5,134.3 511.6,134.3 	"/>
	<path class="st0" d="M114.2,121.7h-10.8l0,0c1.3-2.9,3.9-8.6,5.4-11.8C110.3,113.2,112.9,118.8,114.2,121.7L114.2,121.7z
		 M105.5,97.2l-20.7,45.2l9.2,0l0.3-0.7c0,0,4.2-9.3,5.5-12l18.1,0c1.2,2.7,5.5,12,5.5,12l0.3,0.7l9.2,0l-20.8-45.2L105.5,97.2
		L105.5,97.2z"/>
	<path class="st0" d="M225.7,128.4c0,2.6-0.9,6-8.3,6l-14.9,0l0-11.4l14.2,0C222.9,123,225.7,123.8,225.7,128.4L225.7,128.4z
		 M217.1,115l-14.7,0l0-9.9l14.3,0c5.7,0,7.6,0.7,7.6,4.8C224.4,112.5,223.5,115,217.1,115L217.1,115z M229,118.4
		c2.4-2.1,3.6-5.1,3.6-8.7c0-7.9-5.4-12.6-14.4-12.6l-24.1,0l0,45.2l23.7,0c5.4,0,9.5-1.5,12.4-4.3c2.4-2.4,3.7-5.7,3.7-9.4
		C234,126.9,233.6,121.7,229,118.4L229,118.4z"/>
	<polygon class="st0" points="328.7,166.8 316.3,151.4 310.6,151.4 310.6,173.5 315.9,173.5 315.9,158.1 328.4,173.5 334,173.5 
		334,151.4 328.7,151.4 328.7,166.8 	"/>
	<polygon class="st0" points="348,164 362.2,164 362.2,160.3 348,160.3 348,155.3 363.3,155.3 363.3,151.4 342.5,151.4 342.5,173.5 
		363.6,173.5 363.6,169.6 348,169.6 348,164 	"/>
	<polygon class="st0" points="397.8,167.3 392.5,151.4 387,151.4 381.6,167.3 376.7,151.4 371,151.4 378.6,173.3 378.6,173.5 
		384.1,173.5 389.7,157.6 395.1,173.5 400.6,173.5 408.5,151.4 402.9,151.4 397.8,167.3 	"/>
	<polygon class="st0" points="433.2,160.8 425.9,151.4 419.4,151.4 430.3,164.9 430.3,173.5 435.8,173.5 435.8,164.9 446.7,151.4 
		440.4,151.4 433.2,160.8 	"/>
	<path class="st0" d="M462.9,170.4c-6.1,0-8.2-4.2-8.2-7.9c0-3.6,2.2-7.9,8.2-7.9c3.8,0,8.2,2.1,8.2,7.9
		C471.1,168.3,466.7,170.4,462.9,170.4L462.9,170.4z M462.9,150.9c-8.1,0-13.7,4.8-13.7,11.6c0,6.8,5.6,11.6,13.7,11.6
		c8.1,0,13.7-4.8,13.7-11.6C476.6,155.7,471,150.9,462.9,150.9L462.9,150.9z"/>
	<path class="st0" d="M501.6,158.1c0,2.6-2.4,3.1-4.5,3.1h-7.7v-6.1h7.7C500.2,155.1,501.6,156,501.6,158.1L501.6,158.1z
		 M506.6,167.6c0-3.1-2-4.2-3.4-4.6c2.5-1,3.8-2.9,3.8-5.4c0-3.9-3.4-6.1-9.6-6.1h-13.7v22.1h5.5v-8.9h6.9c4.5,0,5.3,1.7,5.3,5.4
		c0,1.1,0,2.3,0.8,3.4l0.1,0.1h6.3l-0.7-0.6C507.2,172.3,506.6,170.2,506.6,167.6L506.6,167.6z"/>
	<polygon class="st0" points="528.8,160.3 540.4,151.4 533.3,151.4 521.3,160.9 521.3,151.4 515.7,151.4 515.7,173.5 521.3,173.5 
		521.3,166.1 524.9,163.4 534,173.5 541,173.5 528.8,160.3 	"/>
	<path class="st0" d="M544.3,100.9c0.5,0,0.9,0,0.9-0.6c0-0.5-0.4-0.6-0.8-0.6h-0.8v1.2H544.3L544.3,100.9z M543.6,103.1H543v-3.9
		h1.5c0.9,0,1.4,0.3,1.4,1.1c0,0.7-0.4,1-1,1.1l1.1,1.7h-0.7l-1-1.7h-0.7V103.1L543.6,103.1z M544.3,103.9c1.5,0,2.7-1.2,2.7-2.8
		c0-1.6-1.2-2.8-2.7-2.8c-1.5,0-2.7,1.2-2.7,2.8C541.6,102.7,542.8,103.9,544.3,103.9L544.3,103.9z M540.9,101.1
		c0-1.9,1.6-3.3,3.4-3.3c1.8,0,3.4,1.4,3.4,3.3c0,1.9-1.6,3.4-3.4,3.4C542.5,104.5,540.9,103.1,540.9,101.1L540.9,101.1z"/>
</g>
</svg>
