<?xml version="1.0" encoding="utf-8"?>
<!-- Generator: Adobe Illustrator 28.0.0, SVG Export Plug-In . SVG Version: 6.00 Build 0)  -->
<svg version="1.1"
	 id="Layer_1" xmlns:svg="http://www.w3.org/2000/svg" xmlns:rdf="http://www.w3.org/1999/02/22-rdf-syntax-ns#" xmlns:cc="http://creativecommons.org/ns#" xmlns:dc="http://purl.org/dc/elements/1.1/"
	 xmlns="http://www.w3.org/2000/svg" xmlns:xlink="http://www.w3.org/1999/xlink" x="0px" y="0px" viewBox="0 0 6366 1070.3"
	 style="enable-background:new 0 0 6366 1070.3;" xml:space="preserve">
<style type="text/css">
	.st0{fill:#FFFFFF;}
</style>
<path class="st0" d="M1178.4,641.9c0,42.3-0.6,84.7,0.3,127c0.4,16.6-3.7,24.4-21.9,23.3c-22.3-1.3-44.8-0.9-67.2-0.1
	c-14.7,0.5-20.5-4.1-20.3-19.7c0.6-85.5-3.8-171.2,1.6-256.3c4.6-72.2,38-132.7,107.9-164.3c69.8-31.5,134.8-17.9,192.7,29.7
	c14.3,11.8,21.9,12.7,36.4,0.1c58.4-50.8,125.7-58,195.4-29c67,27.9,99.3,83.2,105,153.8c7.2,89.5,2.1,179.1,2.5,268.7
	c0.1,12.4-5.5,15.6-16.6,15.5c-23.2-0.4-46.5-1.2-69.7,0.3c-18.3,1.2-24.3-4.2-24-23.3c1.1-77.2,0.5-154.3,0.3-231.5
	c0-11.6-0.4-23.3-2-34.7c-6.1-42-34.8-66.8-76.4-66.7c-39.9,0.1-70.3,26.8-73.7,69.3c-3.2,40.4-3.1,81.2-3.7,121.8
	c-0.7,47.3-1.4,94.6-0.5,141.9c0.3,18-4.3,25.7-23.5,24.2c-20.6-1.6-41.5-1.4-62.2,0c-17.7,1.2-22.5-5.4-22.3-22.6
	c0.9-73,0.5-146,0.2-219.1c-0.1-15.7-0.4-31.6-2.5-47.2c-5.7-41.5-36.1-68.7-75.4-68.6c-42.9,0.1-75.8,27.3-78.4,70.7
	c-2.8,45.5-0.6,91.2-0.6,136.8C1179.3,641.9,1178.8,641.9,1178.4,641.9z"/>
<path class="st0" d="M3331.7,742.3c0-65.6-3.3-131.4,0.8-196.7c5.5-87.6,45.4-157,130.1-190.1c88.3-34.5,173.7-26.6,246.3,39.6
	c76.4,69.6,92.8,201.9,39.9,297c-48.6,87.2-150.6,126.9-256,100.3c-21-5.3-31.3-15.9-29.2-38.6c1.7-18.1,2.3-36.6,0.6-54.7
	c-2.2-22.7,6.7-23.2,23.7-15.7c22.2,9.8,45.5,15.9,70.1,13.8c82.1-7,131.1-93,101.5-177.7c-18-51.3-62.7-79.4-118.6-74.5
	c-51.1,4.4-90.9,41.3-99.1,93.1c-2.7,17.1-3.7,34.7-3.8,52.1c-0.3,114.6-0.8,229.2,0.2,343.7c0.2,23.7-6.4,32.8-30.7,29.8
	c-17.2-2.1-34.9-1.6-52.2-0.1c-19.4,1.8-25.6-4.9-25.3-24.6c1.1-65.6,0.4-131.2,0.4-196.8C3330.8,742.3,3331.2,742.3,3331.7,742.3z"
	/>
<path class="st0" d="M4053.4,336.8c127.8,1,229.4,105.1,228.3,233.9c-1.1,128.4-105.9,233.2-231.4,231.5
	c-127.3-1.8-227.4-106.2-226-235.9C3825.6,437.3,3926.9,335.8,4053.4,336.8z M4053.5,684.3c64.3-0.2,115.8-52,115.2-115.7
	c-0.7-63.9-52.7-114.8-117-114.3c-64.1,0.4-115.9,52.6-115.2,116.1C3937.2,634.3,3988.8,684.5,4053.5,684.3z"/>
<path class="st0" d="M5354.9,496.2c-3.5,42.7,5.7,95.1-5.9,146.9c-14.3,64.1-48.1,112.8-109.3,138.9c-23,9.8-30.5,24.5-29.7,48.1
	c1.2,38.2-0.2,76.4,0.5,114.6c0.2,14-4.6,19.3-18.6,18.7c-27.3-1-61.2,9-80.4-3.7c-21.4-14.1-4.1-50.5-8.5-76.8
	c-0.4-2.4-0.5-5-0.2-7.5c5.9-50.9-5.8-86.2-59.8-110.9c-61.5-28.1-83.5-90.5-85.7-155.9c-2.7-81.3-0.9-162.7-1.7-244.1
	c-0.1-14.2,5.1-19,18.9-18.5c19.9,0.8,40.1,2,59.7-0.3c25.2-2.9,30.9,7.9,30.7,30.7c-0.8,75.5-0.7,151.1,0.4,226.6
	c1.1,73.3,71,113.9,135.9,79.8c30.6-16,42.6-43.2,43.1-76c1.1-77.2,2.4-154.4,1.6-231.6c-0.3-23.9,4-35.7,30.8-31.9
	c25.1,3.6,58.3-10.8,74,6.1c14.3,15.4,3.3,47.6,4,72.4C5355.3,443.6,5354.9,465.2,5354.9,496.2z"/>
<path class="st0" d="M3102.6,807.7c-38.3-1-75.8-7.4-113-16.3c-22.4-5.4-33.7-20.4-36.6-41.9c-2.5-18.9-2.8-38.1-5.5-56.9
	c-2.3-16.5,1-20.7,18-14.5c35.8,13,71.6,26.6,110.2,29c18.3,1.1,36.7,1.5,53.8-5.9c23.8-10.2,28.6-25.1,17-47.9
	c-7-13.8-18.9-23-30.3-32.5c-37.1-30.6-75.4-59.7-111.7-91.3c-36.1-31.4-56.8-70.1-39.4-119.3c14-39.5,47.1-58.8,84.7-70.6
	c61.7-19.3,123.2-8.8,184.4,3.7c11.9,2.4,18.4,10.5,19.9,22.5c0.3,2.5,1.3,4.9,1.3,7.3c-0.3,22.2,14.9,50.5,1.9,64.6
	c-12.8,13.9-39.7-4.4-60.6-6.7c-22.2-2.4-44.3-7-66.6-8.5c-16.1-1.1-32,2.3-38.1,21c-5.9,18.1,6.2,26.7,18.5,36.4
	c42.4,33.3,86.6,64.4,124.7,102.8c71.5,72,46.4,177.5-49.6,211C3158.6,803.1,3130.9,806.8,3102.6,807.7z"/>
<path class="st0" d="M2524.4,329.1c19.2,2.5,47.1,6.4,75.1,9.7c26.2,3.1,38.9,17.7,42.3,43.7c8.1,62.5,8.7,62.2-53.4,50.6
	c-22.8-4.3-45.8-7.7-68.9-10.2c-18.1-2-36.1,0.4-43.5,20.4c-7,19,7.3,28.2,20,38.2c37.3,29.1,74.7,58,111.1,88.3
	c40.7,33.9,59.1,76.4,47.7,130.2c-11.8,55.4-47.8,85.2-100.2,98.5c-67.6,17.2-133.3,6.7-198.3-14c-10.7-3.4-16-10.8-17.1-21.9
	c-2.4-23.9-4.7-47.9-8-71.7c-2.2-16.1,2.9-18.5,17.6-13.5c34.5,11.8,68.3,26.2,105.3,28.7c11.5,0.8,23.2,1.3,34.7,0.5
	c19.5-1.3,40-4.9,46.8-26.1c6.8-21-6.7-36.4-22.1-48.8c-32.2-26.1-65.1-51.4-97.2-77.7c-15.3-12.6-30.7-25.7-43.7-40.5
	c-49.1-56.2-34.5-127.9,31.8-162.2C2439.5,333.2,2477,328.5,2524.4,329.1z"/>
<path class="st0" d="M2161.8,329.1c19.8,2.5,49.4,6.1,79,10c23.1,3,35.6,16.9,37.3,39.7c1.5,19.8,9.5,45.3,0.4,58.3
	c-12.2,17.4-34.5-3.5-52.7-6.1c-23.9-3.4-47.5-7.7-71.7-6.5c-16.2,0.8-34.1,2.4-40,19.3c-5.8,16.4,8.3,27.3,19.9,36.7
	c36.1,29.2,73,57.5,108.8,87.2c28.3,23.5,48.4,52.8,52.8,90.2c6.8,58.7-24.6,110.7-79.8,132.4c-74.6,29.3-148.4,17.3-221.7-6
	c-10.5-3.3-15.8-11.5-16.9-22.5c-2.7-25.6-5-51.2-8.2-76.7c-2-16.4,7.3-10.9,15-8.4c37,12.1,73.3,26.7,112.6,30.6
	c16.8,1.6,33.3,0.8,49.3-3.8c29.8-8.7,37.4-29.1,20.3-55.1c-5.8-8.8-14-16.5-22.3-23.2c-36-29.3-73.1-57.4-108.6-87.3
	c-35.8-30.1-63-66.2-50.5-116.4c13-52.4,54.5-74.4,102.9-86.1C2108.6,330.1,2130.1,329,2161.8,329.1z"/>
<path class="st0" d="M4656.7,440c0-63.1,0.4-126.1-0.3-189.2c-0.2-16.4,5.3-21.9,21.5-21.1c23.2,1.1,46.5,0.9,69.7,0.1
	c14-0.5,19.2,4.5,18.7,18.6c-0.8,24,0.6,48.2-0.5,72.2c-0.7,16.1,4.4,22.1,21,21.4c29-1.1,58.1,0.1,87.1-0.5
	c12.6-0.2,18,4,17.7,17.1c-0.7,24.9-0.9,49.8,0.1,74.7c0.6,15.3-6.6,17.9-19.5,17.6c-28.2-0.6-56.4,0.4-84.6-0.4
	c-13.1-0.4-17.9,5-18.1,17.2c-0.7,59.7-3.1,119.5,2.1,179c1.9,22.3,17.9,33.5,38.5,35.9c19.7,2.3,39.8,3,59.6,1.8
	c18.1-1.1,23.2,5.7,22.1,22.7c-1.2,18.2-1.7,36.6,0.1,54.7c2.2,22.1-5.8,30.1-28.2,32.4c-120.6,12.6-205.2-61.4-206.2-182.5
	c-0.5-57.2-0.1-114.5-0.1-171.7C4657.1,440,4656.9,440,4656.7,440z"/>
<path class="st0" d="M4454.4,404.4c37.2-43.8,83.8-60.3,138-59.9c16.4,0.1,21.8,5.1,20.9,21.3c-1.2,21.5-1.1,43.2,0,64.7
	c0.7,14.4-3.3,21-18.7,21.8c-17.3,0.9-34.8,3.2-51.7,7.1c-48.6,11.1-75.8,42-81.3,91.4c-8.1,72.8-3.6,146-6.2,218.9
	c-0.6,16.2-3.2,22.6-19.9,21.9c-23.2-1-46.5-0.7-69.7-0.1c-12.8,0.3-17.3-4.7-17.3-17.6c0.3-137,0.3-274,0-410.9
	c0-12.5,3.7-18.9,17-17.6c4.9,0.5,10,0,14.9,0c19.9,0.1,42.2-5.4,59.2,1.8C4460.8,356.2,4441.7,383.2,4454.4,404.4z"/>
<path class="st0" d="M1797.6,567c0-66.3,0.6-132.6-0.4-198.9c-0.2-17.5,5.1-23.5,22.5-22.3c20.6,1.3,41.5,1.6,62.1-0.1
	c19.2-1.5,23.7,6,23.6,24c-0.8,96.9-0.4,193.9-0.4,290.8c0,37.3-0.5,74.6,0.2,111.9c0.3,15.2-5.2,20.7-20.2,20.1
	c-22.3-0.9-44.8-1-67.1,0c-16.7,0.8-20.9-5.9-20.7-21.8C1798,702.9,1797.6,634.9,1797.6,567z"/>
<path class="st0" d="M1916,248.4c0.5,37.8-27.5,67.3-64.4,67.6c-35.5,0.3-64.2-28.2-64.9-64.5c-0.7-35.9,30-68.9,64.2-69.3
	C1883.1,182.1,1915.5,214.9,1916,248.4z"/>
</svg>
