<?xml version="1.0" encoding="utf-8"?>
<!-- Generator: Adobe Illustrator 28.0.0, SVG Export Plug-In . SVG Version: 6.00 Build 0)  -->
<svg version="1.1" id="Layer_1" xmlns="http://www.w3.org/2000/svg" xmlns:xlink="http://www.w3.org/1999/xlink" x="0px" y="0px"
	 viewBox="0 0 859.1 333.1" style="enable-background:new 0 0 859.1 333.1;" xml:space="preserve">
<style type="text/css">
	.st0{fill:#FFFFFF;}
</style>
<path class="st0" d="M277.5,260.4c-0.1-0.5-0.3-0.9-0.6-1.4c-0.2-0.5-0.6-0.9-1-1.4c-0.3-0.3-0.6-0.6-0.9-0.8
	c-0.3-0.2-0.7-0.4-1-0.6c-0.4-0.2-0.9-0.4-1.4-0.6c-0.5-0.2-1.1-0.4-1.9-0.7c-0.8-0.3-1.6-0.6-2.2-0.9c-0.7-0.3-1.2-0.6-1.6-0.9
	c-0.4-0.3-0.8-0.7-1-1.2c-0.2-0.5-0.4-1-0.4-1.7c0-1.1,0.4-2,1.1-2.8c0.7-0.8,1.8-1.2,3.3-1.2c1.2,0,2.3,0.3,3.1,0.8
	c0.9,0.5,1.5,1.4,1.8,2.4l0,0h0.6l0,0c0.1-0.4,0.1-0.7,0.2-0.9c0.1-0.2,0.1-0.5,0.2-0.7c0.1-0.3,0.2-0.5,0.3-0.8
	c0.1-0.3,0.3-0.7,0.5-1.1l0,0l0,0c-0.9-0.4-1.9-0.8-2.8-1.1c-0.9-0.3-2.1-0.5-3.5-0.5c-1.7,0-3.2,0.2-4.3,0.7
	c-1.1,0.5-2.1,1.1-2.7,1.8c-0.7,0.7-1.2,1.6-1.4,2.5c-0.3,0.9-0.4,1.8-0.4,2.6c0,0.8,0.1,1.5,0.2,2.1c0.2,0.6,0.4,1.3,0.8,1.8
	c0.4,0.5,0.9,1.1,1.5,1.5c0.6,0.5,1.4,0.9,2.3,1.3c0.5,0.2,1.1,0.5,1.9,0.8c0.8,0.3,1.4,0.6,1.9,0.8c0.2,0.1,0.5,0.2,0.8,0.4
	c0.3,0.2,0.7,0.4,1,0.8c0.3,0.3,0.6,0.8,0.9,1.3c0.2,0.5,0.4,1.1,0.4,1.9c0,0.7-0.1,1.3-0.4,1.9c-0.2,0.6-0.6,1.1-1,1.5
	c-0.4,0.4-0.9,0.7-1.5,1c-0.6,0.2-1.3,0.4-2,0.4c-0.6,0-1.1-0.1-1.6-0.1c-0.5-0.1-1-0.3-1.5-0.6c-0.5-0.3-0.9-0.7-1.4-1.3
	c-0.4-0.6-0.9-1.3-1.3-2.3l0,0H262l0,0c0,0.2,0,0.3,0,0.4c0,0.3-0.1,0.5-0.1,0.7c0,0.3-0.1,0.6-0.1,0.9c0,0.3-0.1,0.6-0.2,1
	c-0.1,0.3-0.2,0.7-0.4,1.2l0,0l0,0c0.4,0.2,0.8,0.4,1.2,0.6c0.5,0.2,1,0.4,1.6,0.6c0.6,0.2,1.3,0.4,2,0.5c0.7,0.1,1.5,0.2,2.3,0.2
	c1.7,0,3.2-0.3,4.4-0.8c1.2-0.5,2.2-1.2,3-2c0.8-0.8,1.3-1.7,1.7-2.7c0.4-1,0.5-2,0.5-2.9c0-0.2,0-0.6-0.1-1
	C277.7,261.3,277.7,260.9,277.5,260.4z M340,244.7c-0.3,0-0.7,0-1.3-0.1c-0.6,0-1-0.1-1.4-0.2l-0.1,0l0,0.1c0.2,1.8,0.3,3.5,0.3,4.8
	c0,1.4,0,2.7,0,3.9c0,3.5,0,6.6-0.1,9.3c0,3-0.2,5.6-0.4,7.9l0,0.1l0.1,0c0.4,0,0.9-0.1,1.4-0.1c0.5-0.1,0.9-0.1,1.4-0.1
	c0.4,0,0.9,0,1.3,0.1c0.5,0.1,0.9,0.1,1.3,0.1l0.1,0l0-0.1c-0.2-1.5-0.3-3.4-0.3-5.4c0-2.1-0.1-4.5-0.1-7.4v-3.3c0-1.3,0-2.5,0-3.7
	c0-1.2,0.1-2.4,0.1-3.5c0.1-1.1,0.1-2,0.2-2.7l0-0.1l-1.4,0.2C340.9,244.7,340.4,244.7,340,244.7z M314.8,260.4
	c-0.1-0.5-0.3-0.9-0.6-1.4c-0.2-0.5-0.6-0.9-1-1.4c-0.3-0.3-0.6-0.6-0.9-0.8c-0.3-0.2-0.7-0.4-1-0.6c-0.4-0.2-0.9-0.4-1.4-0.6
	c-0.5-0.2-1.1-0.4-1.9-0.7c-0.8-0.3-1.6-0.6-2.2-0.9c-0.7-0.3-1.2-0.6-1.6-0.9c-0.4-0.3-0.8-0.8-1-1.2c-0.2-0.5-0.4-1-0.4-1.7
	c0-1.1,0.4-2,1.1-2.8c0.7-0.8,1.8-1.2,3.3-1.2c1.2,0,2.3,0.3,3.1,0.8c0.9,0.5,1.5,1.4,1.8,2.4l0,0h0.6l0,0c0.1-0.4,0.1-0.7,0.2-0.9
	c0.1-0.2,0.1-0.5,0.2-0.7c0.1-0.2,0.2-0.5,0.3-0.8c0.1-0.3,0.3-0.6,0.5-1.1l0,0l0,0c-0.9-0.4-1.9-0.8-2.8-1.1
	c-0.9-0.3-2.1-0.5-3.5-0.5c-1.7,0-3.2,0.2-4.3,0.7c-1.1,0.5-2,1.1-2.7,1.8c-0.7,0.7-1.2,1.6-1.4,2.5c-0.3,0.9-0.4,1.8-0.4,2.6
	c0,0.8,0.1,1.5,0.2,2.1c0.1,0.6,0.4,1.2,0.8,1.8c0.4,0.5,0.9,1,1.5,1.5c0.6,0.5,1.4,0.9,2.3,1.3c0.5,0.2,1.1,0.5,1.9,0.8
	c0.8,0.3,1.4,0.6,1.9,0.8c0.1,0.1,0.4,0.2,0.8,0.4c0.3,0.2,0.7,0.4,1,0.8c0.3,0.3,0.6,0.8,0.9,1.3c0.2,0.5,0.4,1.1,0.4,1.9
	c0,0.7-0.1,1.3-0.4,1.9c-0.2,0.6-0.6,1.1-1,1.5c-0.4,0.4-0.9,0.7-1.5,1c-0.6,0.2-1.3,0.4-2,0.4c-0.5,0-1.1-0.1-1.6-0.1
	c-0.5-0.1-1-0.3-1.5-0.6c-0.5-0.3-0.9-0.7-1.4-1.3c-0.4-0.6-0.9-1.3-1.3-2.3l0,0h-0.6l0,0.3c0,0.4-0.1,0.7-0.1,0.9
	c0,0.3-0.1,0.6-0.1,0.9c0,0.3-0.1,0.6-0.2,1c-0.1,0.3-0.2,0.7-0.4,1.2l0,0.1l0,0c0.3,0.2,0.8,0.4,1.2,0.6c0.5,0.2,1,0.4,1.6,0.6
	c0.6,0.2,1.3,0.4,2,0.5c0.7,0.1,1.5,0.2,2.3,0.2c1.7,0,3.2-0.3,4.4-0.8c1.2-0.5,2.2-1.2,3-2c0.8-0.8,1.3-1.7,1.7-2.7
	c0.4-1,0.5-2,0.5-2.9c0-0.2,0-0.6-0.1-1C315,261.3,315,260.9,314.8,260.4z M388.8,247.2c-1.3-1.1-2.8-1.8-4.5-2.3
	c-1.7-0.5-3.4-0.7-5.2-0.7c-1.9,0-3.7,0.3-5.5,0.8c-1.7,0.5-3.2,1.4-4.5,2.5c-1.3,1.1-2.3,2.6-3.1,4.3c-0.8,1.7-1.2,3.8-1.2,6.2
	c0,2.1,0.4,3.9,1.1,5.5c0.7,1.6,1.7,3,3,4.1c1.3,1.1,2.8,1.9,4.5,2.5c1.7,0.6,3.6,0.9,5.5,0.9c2.1,0,4-0.3,5.8-1
	c1.7-0.7,3.2-1.6,4.5-2.8c1.2-1.2,2.2-2.7,2.9-4.4c0.7-1.7,1-3.6,1-5.7c0-2.3-0.4-4.2-1.2-5.9C391.2,249.7,390.1,248.3,388.8,247.2z
	 M387.4,261.7c-0.3,1.3-0.8,2.6-1.6,3.7c-0.7,1.1-1.6,2-2.7,2.6c-1.1,0.7-2.5,1-4.1,1c-1.6,0-3-0.3-4.1-1c-1.1-0.7-2-1.5-2.7-2.6
	c-0.7-1.1-1.2-2.3-1.5-3.7c-0.3-1.4-0.5-2.8-0.5-4.2c0-1.3,0.2-2.6,0.5-4c0.3-1.3,0.8-2.6,1.5-3.7c0.7-1.1,1.6-2,2.7-2.7
	c1.1-0.7,2.5-1,4.1-1c1.6,0,3.1,0.3,4.2,0.9c1.1,0.6,2,1.4,2.7,2.5c0.7,1,1.2,2.3,1.5,3.6c0.3,1.4,0.5,2.8,0.5,4.4
	C387.9,259,387.7,260.3,387.4,261.7z M76.7,245.9c-0.9-0.7-1.8-1.1-2.8-1.2c-1-0.2-1.9-0.2-2.8-0.2c-0.2,0-0.5,0-1,0
	c-0.5,0-1,0-1.5,0.1c-0.6,0-1.1,0-1.6,0.1c-0.6,0-0.9,0-1,0c-1,0-1.7,0-2.3-0.1c-0.6,0-1.1-0.1-1.5-0.1l-0.1,0l0.2,4.8
	c0,0.5,0,0.9,0.1,1.4c0,0.6,0,1.2,0,1.8v3.3l-0.1,9.3c0,0.5,0,1.2-0.1,1.9c0,0.8-0.1,2-0.2,3.5l0,0.1l0.1,0c0.4-0.1,0.8-0.1,1.2-0.2
	c0.4,0,0.8-0.1,1.4-0.1c0.5,0,1,0,1.4,0.1c0.4,0,0.8,0.1,1.3,0.2l0.1,0l0-0.1c0-0.3-0.1-0.6-0.1-1c0-0.3-0.1-0.7-0.1-1.2
	c0-0.4,0-1-0.1-1.6c0-0.5,0-1.2,0-2.2v-5.6c0.4,0,0.8,0.1,1.1,0.1c0.4,0,0.8,0,1.4,0c1.8,0,3.3-0.2,4.6-0.7c1.2-0.5,2.2-1.1,3-1.8
	c0.7-0.8,1.3-1.6,1.6-2.5c0.3-0.9,0.5-1.8,0.5-2.7c0-1.4-0.3-2.5-0.7-3.3C78,247.1,77.4,246.5,76.7,245.9z M74.1,253.2
	c-0.2,0.7-0.4,1.2-0.8,1.8c-0.4,0.6-0.9,1.1-1.6,1.5c-0.7,0.4-1.5,0.6-2.6,0.6c-0.4,0-0.7,0-1,0c-0.3,0-0.7-0.1-0.9-0.1v-10.4
	c0.4,0,0.8-0.1,1.2-0.1c0.4,0,0.9,0,1.4,0c1.5,0,2.7,0.5,3.4,1.4c0.7,1,1.1,2.2,1.1,3.7C74.3,252,74.2,252.6,74.1,253.2z
	 M164.3,247.2c-1.3-1.1-2.8-1.8-4.5-2.3c-1.7-0.5-3.4-0.7-5.2-0.7c-1.9,0-3.7,0.3-5.5,0.8c-1.7,0.5-3.2,1.4-4.5,2.5
	c-1.3,1.1-2.3,2.6-3.1,4.3c-0.8,1.7-1.2,3.8-1.2,6.2c0,2.1,0.4,3.9,1.1,5.5c0.7,1.6,1.7,3,3,4.1c1.3,1.1,2.8,1.9,4.5,2.5
	c1.7,0.6,3.6,0.9,5.5,0.9c2.1,0,4-0.3,5.8-1c1.7-0.7,3.2-1.6,4.5-2.8c1.2-1.2,2.2-2.7,2.9-4.4c0.7-1.7,1-3.6,1-5.7
	c0-2.3-0.4-4.2-1.2-5.9C166.6,249.7,165.6,248.3,164.3,247.2z M162.9,261.7c-0.3,1.3-0.9,2.6-1.6,3.7c-0.7,1.1-1.6,2-2.7,2.6
	c-1.1,0.7-2.5,1-4.1,1c-1.6,0-3-0.3-4.1-1c-1.1-0.7-2-1.5-2.7-2.6c-0.7-1.1-1.2-2.3-1.5-3.7c-0.3-1.4-0.5-2.8-0.5-4.2
	c0-1.3,0.2-2.6,0.5-4c0.3-1.3,0.8-2.6,1.5-3.7c0.7-1.1,1.6-2,2.7-2.7c1.1-0.7,2.5-1,4.1-1c1.6,0,3.1,0.3,4.2,0.9
	c1.1,0.6,2,1.4,2.7,2.5c0.7,1,1.2,2.3,1.5,3.6c0.3,1.4,0.5,2.8,0.5,4.4C163.4,259,163.2,260.3,162.9,261.7z M240.8,267.8
	L240.8,267.8c-0.9,0.1-1.8,0.1-2.7,0.1c-0.9,0-1.8,0.1-2.6,0.1l-0.1,0c-0.8,0-1.6,0-2.3,0.1c-0.6,0-1.1,0-1.3,0v-10.1
	c0.9,0,1.7,0,2.6,0c0.8,0,1.7,0,2.6,0.1l1.4,0.1c0.5,0,1,0.1,1.5,0.1l0.1,0l0-0.1c-0.1-0.3-0.2-0.7-0.2-1.3c0-0.3,0-0.5,0.1-0.7
	c0-0.2,0.1-0.4,0.1-0.6l0-0.1l-0.1,0c-0.5,0.1-1.1,0.1-1.8,0.1c-0.7,0-1.4,0.1-2.3,0.1c-0.8,0-1.5,0-2.2,0h-1.7v-8.8h3.4
	c0.4,0,0.7,0,0.9,0c0.3,0,0.6,0,0.9,0.1l3.6,0.2l0.1,0l0-0.1c-0.1-0.3-0.2-0.8-0.2-1.4c0-0.2,0-0.4,0.1-0.6c0-0.1,0.1-0.3,0.1-0.4
	l0.1-0.3l-0.1,0c-1.3,0-2.6,0.1-3.8,0.1c-1.2,0-2.2,0.1-3.1,0.1c-0.5,0-1.1,0-1.7,0c-0.6,0-1.2,0-1.8-0.1c-0.5,0-1.1,0-1.6-0.1
	l-0.2,0c-0.6,0-1.1-0.1-1.6-0.1l-0.1,0l0,0.1c0.1,1,0.1,2.1,0.2,3.4c0,1.3,0.1,2.5,0.1,3.8c0,1.2,0,2.4,0.1,3.4c0,1,0,1.7,0,2.1
	c0,0.4,0,1,0,1.8c0,0.7,0,1.5,0,2.3l0,2.4c0,0.8,0,1.5-0.1,2c0,0.5,0,1,0,1.5c0,0.3,0,0.6,0,0.9c0,0.8-0.1,1.6-0.1,2.4l0,0.1l0.1,0
	c2.4-0.1,4.8-0.2,7.1-0.2c2.4,0,4.7,0.1,7,0.2l0.1,0l0-0.1c-0.1-0.3-0.2-0.8-0.2-1.3C240.6,268.6,240.6,268.1,240.8,267.8
	L240.8,267.8z M205.1,246.5c0-0.2,0-0.4,0-0.5c0-0.2,0-0.4,0.1-0.7c0-0.1,0-0.2,0.1-0.3c0-0.1,0-0.3,0.1-0.4l0-0.1l-0.1,0
	c-1.1,0.1-2.3,0.1-3.5,0.2c-1.2,0-2.5,0.1-3.7,0.1c-0.6,0-1.1,0-1.7,0c-0.6,0-1.3,0-2.1-0.1c-0.7,0-1.4,0-2-0.1
	c-0.6,0-1.1-0.1-1.4-0.1l-0.1,0l0,0.1c0.1,1.9,0.2,3.9,0.3,5.8c0.1,2.1,0.1,4.3,0.1,6.7c0,1.4,0,2.6,0,3.7c0,0.7,0,1.4,0,2.1l0,0.7
	c0,0.9,0,1.9-0.1,2.9l-0.1,1.2c0,0.8-0.1,1.7-0.1,2.7l0,0.1l0.1,0c0.4-0.1,0.7-0.1,1.1-0.2c0.4,0,0.8-0.1,1.4-0.1c0.5,0,1,0,1.4,0
	c0.4,0,0.9,0.1,1.3,0.2l0.1,0l0-0.1c0-0.3-0.1-0.7-0.1-1c0-0.2,0-0.6-0.1-1c0-0.3,0-0.6,0-0.8c0-0.3,0-0.6,0-0.9v-8.8h4
	c0.4,0,0.9,0,1.2,0c0.4,0,0.8,0,1.3,0.1l2.1,0.1l0.1,0l0-0.1c-0.1-0.3-0.1-0.5-0.1-0.7c0-0.2-0.1-0.4-0.1-0.6c0-0.4,0.1-0.8,0.2-1.2
	l0-0.1l-0.1,0c-0.8,0.1-1.6,0.1-2.5,0.1c-0.9,0-2.1,0.1-3.5,0.1H196v-8.7c0.8,0,1.6,0,2.3,0c0.7,0,1.4,0,2.1,0.1l0.1,0
	c0.8,0,1.5,0.1,2.2,0.1c0.7,0,1.5,0.1,2.4,0.2l0.1,0l0-0.1C205.2,246.9,205.1,246.6,205.1,246.5z M119.9,268.4
	c-0.4-0.5-0.9-1.1-1.4-1.8c-0.5-0.6-1-1.3-1.5-2c-0.3-0.5-0.7-1-1.2-1.6l-0.7-1c-0.3-0.5-0.6-0.9-1-1.4c-0.3-0.5-0.6-0.9-0.9-1.2
	l-1.1-1.6c0.8-0.2,1.6-0.4,2.4-0.8c0.8-0.4,1.5-0.8,2.1-1.4c0.6-0.6,1.1-1.3,1.5-2.1c0.4-0.8,0.6-1.7,0.6-2.8c0-0.8-0.1-1.6-0.4-2.3
	c-0.3-0.7-0.7-1.4-1.3-1.9c-0.8-0.8-1.7-1.3-2.7-1.5c-1-0.2-2.1-0.3-3.3-0.3c-0.2,0-0.6,0-1.2,0c-0.6,0-1.2,0-1.9,0.1
	c-0.7,0-1.3,0-1.9,0.1c-0.6,0-1,0-1.3,0c-1,0-1.7,0-2.3-0.1c-0.6,0-1.1-0.1-1.5-0.1l-0.1,0l0,0.1c0.1,1.1,0.1,2.1,0.2,3
	c0,0.8,0.1,1.5,0.1,2.2c0,0.8,0,1.5,0,2.2v6.2c0,0.8,0,1.6,0,2.5c0,0.7,0,1.3,0,1.9l0,0.2c0,0.7,0,1.4-0.1,2.1l0,0.5
	c0,0.6,0,1.3-0.1,2c0,0.6,0,1.2-0.1,1.9c0,0.4,0,0.9-0.1,1.4l0,0.1l0.1,0c0.2,0,0.4,0,0.6-0.1c0.2,0,0.5-0.1,0.8-0.1
	c0.9-0.1,1.9-0.1,2.7,0c0.4,0,0.7,0.1,1.1,0.1l0.2,0v-0.1c0-0.3,0-0.7,0-1.4c0-0.8,0-1.5-0.1-2.1l0-0.1c0-0.7,0-1.3-0.1-2
	c0-0.6,0-1.1,0-1.4v-5.3h0.8c0.9,1.3,1.9,2.7,3.2,4.5c1.1,1.6,2.2,3.2,3.1,4.6c0.3,0.4,0.6,1,1,1.6c0.4,0.6,0.7,1.2,1,1.6l0,0l0,0
	c0.5-0.1,1-0.1,1.4-0.2c0.4,0,0.9-0.1,1.7-0.1c0.7,0,1.3,0,1.8,0.1c0.2,0,0.4,0,0.7,0.1c0.3,0,0.6,0.1,0.9,0.1l0.1,0l-0.2-0.2
	C120.8,269.6,120.3,269,119.9,268.4z M108.4,256.4c-0.5,0-1,0-1.4,0c-0.4,0-0.8,0-1.1-0.1v-9.7c0.2,0,0.4,0,0.6-0.1l0.6-0.1
	c0.6,0,1-0.1,1.4-0.1c0.6,0,1.2,0.1,1.8,0.2c0.6,0.1,1.1,0.4,1.6,0.7c0.6,0.5,1.1,1.1,1.3,1.7c0.2,0.7,0.3,1.4,0.3,2.2
	c0,0.6-0.1,1.2-0.3,1.8c-0.2,0.6-0.5,1.2-0.9,1.7c-0.4,0.5-0.9,0.9-1.6,1.2C110.1,256.3,109.3,256.4,108.4,256.4z M594.5,268.5
	c-0.1-0.5-0.2-1-0.3-1.6l-0.2-1.1c-0.2-1.1-0.3-1.9-0.4-2.8c-0.1-0.9-0.2-1.6-0.3-2.2c-0.3-2.5-0.6-4.6-0.8-6.6
	c-0.2-2.1-0.5-4.2-0.7-6.5l-0.3-3.1l0-0.1l-0.1,0c-0.6,0.2-1.1,0.1-1.6,0l0,0l0,0c-1,2-1.8,3.6-2.5,5c-0.9,1.7-1.5,2.9-2.1,4
	c-0.6,1.2-1.3,2.4-2.1,3.8c-0.8,1.4-1.6,2.8-2.4,4.2l-1.4,2.4l-2-3.5c-1-1.8-1.7-3.1-2.3-4.1c-0.6-1-1.1-2.1-1.7-3.2
	c-0.5-1-1-1.9-1.5-2.9c-0.4-0.8-0.9-1.9-1.7-3.4l-1.2-2.4l0,0l0,0c-0.1,0-0.3,0-0.4,0.1c-0.4,0.1-0.8,0-1.3-0.1l-0.1,0l0,0.1
	c-0.1,0.7-0.2,1.6-0.4,3c-0.2,1.2-0.3,2.7-0.6,4.3c-0.2,1.5-0.5,3.2-0.7,5c-0.2,1.6-0.5,3.3-0.7,5c-0.3,1.7-0.5,3.1-0.7,4.4
	c-0.2,1.4-0.4,2.4-0.5,3.2l-0.2,1.2l0,0.1l0.3-0.1c0.2,0,0.4-0.1,0.5-0.1c0.3-0.1,0.5-0.1,0.8-0.1c0.5,0,1,0.1,1.7,0.2l0.1,0l0-0.1
	c0.1-2.9,0.3-5.7,0.6-8.5c0.3-2.7,0.6-5.5,0.9-8.1c0.1,0.3,0.3,0.6,0.7,1.2l0.2,0.3c0.3,0.6,0.6,1.1,1,1.7c0.4,0.7,0.8,1.4,1.1,2.1
	c0.2,0.4,0.4,0.7,0.5,1c0.1,0.2,0.2,0.3,0.2,0.4c0.6,1.2,1.3,2.4,1.8,3.5c0.5,1,1,1.8,1.3,2.5c0.4,0.7,0.7,1.4,1.1,2
	c0.3,0.6,0.6,1.2,1,2l0,0l0,0c0.1,0,0.2,0,0.4-0.1c0.2,0,0.5,0,0.7,0c0.1,0,0.2,0,0.4,0.1l0,0l0,0c0.5-1.3,1.2-2.7,2-4.2
	c0.7-1.5,1.6-3.1,2.4-4.6c0.9-1.7,1.7-3.1,2.5-4.5c0.8-1.4,1.5-2.6,2.1-3.6c0,0.1,0,0.1,0,0.2c0,0.2,0,0.5,0.1,0.9
	c0,0.6,0.1,1.2,0.2,1.9c0.1,0.6,0.2,1.3,0.3,2.3c0.1,0.6,0.1,1.1,0.2,1.6l0.1,0.6c0.1,0.7,0.2,1.4,0.2,2c0.1,0.6,0.1,1,0.2,1.3
	c0,0.2,0.1,0.5,0.1,0.9c0,0.5,0.1,0.9,0.1,1.4c0,0.5,0.1,1,0.1,1.5c0,0.5,0.1,0.8,0.1,1l0.1,1.4l0,0.1l0.1,0c0.6-0.1,1-0.1,1.5-0.2
	c0.4,0,0.8-0.1,1.1-0.1c0.3,0,0.6,0,1.2,0.1c0.6,0.1,1.1,0.1,1.5,0.2l0.1,0l0-0.1C594.7,270,594.6,269.4,594.5,268.5z M636.7,267.4
	c-0.3-0.7-0.6-1.4-0.9-2.1l-0.6-1.3c-0.5-1.2-1-2.3-1.5-3.3c-0.5-1.1-0.9-2-1.2-2.9c-0.3-0.8-0.7-1.6-1.2-2.7
	c-0.4-0.9-0.8-2.1-1.4-3.3c-0.5-1.2-1-2.4-1.5-3.7c-0.5-1.3-1-2.6-1.4-3.9l0,0l0,0c-0.4,0.1-0.8,0.2-1.2,0.2c-0.2,0-0.4,0-0.6-0.1
	c-0.2,0-0.4-0.1-0.6-0.1l0,0l0,0c-0.2,0.8-0.5,1.7-0.9,2.7c-0.4,1-0.9,2.2-1.4,3.5c-0.5,1.3-1.2,2.8-2,4.6c-0.8,1.7-1.6,3.6-2.6,5.8
	l-4.4,9.8l0,0.1l0.1,0c0.3,0,0.5-0.1,0.8-0.2c0.3,0,0.6-0.1,0.9-0.1c0.3,0,0.6,0,0.9,0.1c0.3,0.1,0.6,0.1,0.9,0.2l0,0l0,0
	c0.3-1.1,0.7-2.4,1.3-3.8c0.5-1.4,1.1-2.9,1.7-4.4c0.7,0,1.4-0.1,2.2-0.1c0.8,0,1.5,0,2.3,0c0.8,0,1.6,0,2.4,0
	c0.8,0,1.6,0.1,2.4,0.1l1.6,4l1.6,4.2l0,0l0,0c0.3,0,0.8-0.1,1.3-0.1c0.5-0.1,1-0.1,1.5-0.1s1.1,0,1.7,0.1c0.6,0.1,1,0.1,1.3,0.1
	l0.1,0l0-0.1C637.6,269.6,637.2,268.6,636.7,267.4z M626.3,260c-0.5,0-1.1,0-1.7,0c-0.7,0-1.3,0-2-0.1c-0.6,0-1.3-0.1-1.9-0.1
	l3.8-9.1l3.5,9.1C627.4,259.9,626.9,260,626.3,260z M437.2,244.6c-0.2,0-0.5,0.1-0.9,0.1s-0.7,0-0.9-0.1c-0.3-0.1-0.5-0.1-0.7-0.2
	l-0.1,0l0,0.1c0.1,1.5,0.2,3.1,0.3,4.7c0.1,1.6,0.1,3.2,0.1,4.8v8.3c-0.4-0.3-0.7-0.6-0.9-0.7c-0.2-0.2-0.5-0.5-0.9-0.8l-4.5-4.4
	c-1.1-1-2.1-2.1-3.2-3.2c-0.9-0.9-1.9-1.9-2.9-3c-1-1-1.9-1.9-2.7-2.9c-0.9-1-1.8-1.9-2.7-2.9l0,0l0,0c-0.2,0-0.3,0-0.4,0.1
	c-0.1,0-0.3,0-0.4,0c-0.2,0-0.3,0-0.4,0c-0.2,0-0.3,0-0.4-0.1l-0.1,0l0,0.1c0,1.8,0,3.5,0.1,5.3l0,0c0,1.8,0,3.6,0,5.3v6.2
	c0,0.4,0,0.9,0,1.4c0,0.3,0,0.6,0,0.9c0,0.2,0,0.3,0,0.5c0,0.4,0,0.7-0.1,1l-0.3,5.3l0.1,0c0.2,0,0.3-0.1,0.5-0.1l0.2,0
	c0.5-0.1,1-0.1,1.7,0c0.3,0.1,0.6,0.1,0.8,0.1l0.1,0l0-0.1c-0.1-0.8-0.1-1.5-0.2-2.1c0-0.5-0.1-1-0.1-1.4c0-0.4,0-0.8-0.1-1.2
	c0-0.4,0-0.9,0-1.4c0-0.9,0-1.9-0.1-2.8c0-0.3,0-0.7,0-1c0-0.6,0-1.1,0-1.7c0-0.9,0-1.9,0-2.9v-3.3c0.6,0.6,1.4,1.3,2.3,2.2
	c0.9,0.9,1.9,1.9,3,2.9c1,1,2.1,2.1,3.4,3.3c1.1,1.1,2.3,2.3,3.4,3.4c1,1.1,2.1,2.2,3.2,3.3c1.1,1.2,2,2.1,2.7,2.9l0,0l0,0
	c0.1,0,0.3,0,0.4-0.1c0.1,0,0.3,0,0.4,0c0.1,0,0.3,0,0.4,0c0.1,0,0.2,0,0.4,0.1l0.1,0v-0.9c0-0.4,0-0.7,0-1.1c0-0.4,0-0.7,0-1v-2.8
	c0-0.9,0-1.8,0-2.7c0-1,0-2,0-2.7v-2.2c0-1.2,0-2.5,0-3.7c0-1.2,0-2.2,0.1-3.1c0-0.9,0.1-1.8,0.1-2.9c0.1-1,0.1-2,0.2-3.1l0-0.1
	l-0.1,0C437.7,244.5,437.4,244.6,437.2,244.6z M677.6,268.9c-0.6-0.7-1.2-1.4-1.8-2.1c-0.6-0.7-1.3-1.5-1.9-2.4
	c-0.6-0.8-1.2-1.5-1.9-2.4l-0.4-0.5c-0.5-0.6-0.9-1.1-1.3-1.7c-0.2-0.3-0.5-0.6-0.7-0.9c-0.2-0.3-0.4-0.5-0.6-0.7l-2-2.6
	c0.7-0.8,1.2-1.4,1.7-1.8c0.5-0.5,0.9-0.9,1.2-1.3c0.4-0.4,0.7-0.7,1.1-1.1c0.3-0.3,0.7-0.7,1.2-1.2c0.5-0.5,0.9-0.9,1.4-1.3
	c0.5-0.5,1.1-1.1,1.6-1.5c0.5-0.5,1.1-1,1.7-1.5c0.6-0.5,1.1-1,1.5-1.4l0.1-0.1l-0.2,0c-0.6,0.1-1.1,0.2-1.4,0.2
	c-0.8,0-1.4,0.1-2.1,0c-0.3,0-0.6-0.1-0.8-0.2l0,0l0,0c-0.3,0.4-0.6,0.8-1,1.3c-0.5,0.5-0.8,1-1.2,1.4c-0.4,0.5-0.8,1-1.3,1.5
	c-0.5,0.5-0.9,1-1.3,1.4c-0.5,0.6-1,1.1-1.5,1.6c-0.5,0.5-1,1-1.5,1.5c-0.5,0.5-1,1-1.6,1.5c-0.5,0.5-1.1,1-1.8,1.6v-2.9
	c0-1,0-2,0-3c0-0.3,0-0.8,0-1.2c0-0.3,0-0.6,0-0.9c0-0.2,0-0.5,0-0.7c0-0.6,0-1.1,0.1-1.7c0-0.5,0.1-1.1,0.2-1.5l0-0.1l-0.1,0
	c-0.4,0-0.9,0.1-1.3,0.2c-0.5,0-0.9,0.1-1.3,0.1c-0.4,0-0.8,0-1.3-0.1c-0.5,0-0.9-0.1-1.3-0.2l-0.1,0l0,0.1c0.1,0.9,0.1,1.7,0.2,2.4
	c0,0.6,0.1,1.2,0.1,1.8l0,0.5c0,0.4,0,0.9,0,1.4c0,0.7,0,1.6,0,2.6v4.4c0,1.2,0,2.3,0,3.2c0,0.8,0,1.5,0,2.1l0,0.3
	c0,0.6,0,1.4-0.1,2.1c0,0.7-0.1,1.4-0.1,2.1l0,0.1c0,0.8-0.1,1.7-0.1,2.8l0,0.1l0.1,0c0.4,0,0.8-0.1,1.3-0.1
	c0.5-0.1,0.9-0.1,1.3-0.1c0.4,0,0.9,0,1.4,0.1c0.5,0.1,0.9,0.1,1.2,0.1l0.1,0l0-0.1c-0.2-1.9-0.3-4-0.3-6.1c0-2.2,0-4.2,0-6.1
	c2,2.2,3.7,4.3,5.2,6.3c1.4,2,2.9,3.9,4.3,5.9l0,0l0,0c0.6-0.1,1.1-0.1,1.7-0.2c0.6-0.1,1.1-0.1,1.5-0.1c0.4,0,0.8,0,1.3,0
	c0.5,0,1.2,0.1,2.1,0.2l0.2,0l-0.1-0.1C678.7,270,678.2,269.5,677.6,268.9z M756.1,244.6c-0.6,0.1-1.2,0.1-1.8,0
	c-0.2,0-0.3-0.1-0.5-0.1c-0.1,0-0.2,0-0.3-0.1l-0.1,0l0,0.1c0.2,2.4,0.2,4.9,0.3,7.4c0,2.4,0.1,4.9,0.1,7.4c0,0.8,0,1.4,0,2
	c0,0.5-0.1,1-0.1,1.4c0,0.4-0.1,0.7-0.2,1c-0.1,0.3-0.1,0.5-0.2,0.7c-0.4,1.1-1.2,2.1-2.3,2.8c-1.1,0.7-2.4,1.1-4,1.1
	c-1.3,0-2.5-0.2-3.5-0.6c-1-0.4-1.7-1-2.3-1.7c-0.3-0.4-0.5-0.8-0.6-1.2c-0.2-0.4-0.3-0.9-0.3-1.5c-0.1-0.6-0.1-1.4-0.1-2.4
	c0-1,0-2.2,0-3.7c0-1.6,0-3.3,0-5c0-1.7,0-3.3,0.1-4.7l0.1-2.9l0-0.1l-0.1,0c-0.4,0-0.7,0.1-1.1,0.1c-0.8,0.1-1.7,0.1-2.6,0
	c-0.4,0-0.8-0.1-1.2-0.1l-0.2,0l0,0.1c0,0.5,0,1,0.1,1.6c0,0.6,0,1.2,0.1,1.8c0,0.3,0,0.6,0,0.9c0,0.3,0,0.6,0,0.9
	c0,0.5,0,1.1,0,1.6v11.2c0,0.4,0,0.8,0.1,1.1c0.2,1.5,0.7,2.7,1.4,3.6c0.7,0.9,1.6,1.7,2.6,2.2c1,0.5,2.1,0.9,3.3,1.1
	c1.2,0.2,2.4,0.3,3.5,0.3c1,0,2.1-0.1,3.3-0.4c1.2-0.2,2.2-0.7,3.1-1.3c0.6-0.4,1.2-0.8,1.7-1.3c0.5-0.5,0.9-1,1.2-1.7
	c0.3-0.6,0.6-1.4,0.7-2.2c0.2-0.8,0.3-1.8,0.3-2.9c0-0.9,0-2,0.1-3.5c0-0.8,0-1.6,0-2.4c0-0.6,0-1.1,0-1.7c0-1.4,0.1-2.8,0.1-4.1
	c0-1.3,0.1-2.4,0.1-3.2l0.1-1.9l-0.1,0C756.6,244.5,756.3,244.6,756.1,244.6z M796.3,248c-0.5-0.8-1.1-1.5-1.8-2
	c-0.9-0.7-1.8-1.1-2.8-1.2c-0.9-0.2-1.9-0.2-2.8-0.2c-0.2,0-0.5,0-1,0c-0.5,0-1,0-1.5,0.1c-0.6,0-1.1,0-1.6,0.1c-0.6,0-0.9,0-1,0
	c-1,0-1.7,0-2.3-0.1c-0.6,0-1.1-0.1-1.5-0.1l-0.1,0l0.2,4.8c0,0.4,0,0.8,0.1,1.4c0,0.6,0,1.2,0,1.8v3.3l-0.1,9.3
	c0,0.4,0,1.1-0.1,1.9c0,0.8-0.1,2-0.2,3.5l0,0.1l0.1,0c0.4-0.1,0.8-0.1,1.2-0.2c0.4,0,0.8-0.1,1.4-0.1c0.5,0,1,0,1.4,0.1
	c0.4,0,0.8,0.1,1.3,0.2l0.1,0l0-0.1c0-0.3-0.1-0.6-0.1-1c0-0.3-0.1-0.7-0.1-1.2c0-0.4,0-1-0.1-1.6c0-0.7,0-1.4,0-2.2v-5.6
	c0.4,0,0.8,0.1,1.1,0.1c0.4,0,0.8,0,1.4,0c1.8,0,3.3-0.2,4.6-0.7c1.2-0.5,2.2-1.1,3-1.8c0.7-0.7,1.3-1.6,1.6-2.5
	c0.3-0.9,0.5-1.8,0.5-2.7C797,249.9,796.8,248.8,796.3,248z M791.8,253.2c-0.1,0.6-0.4,1.2-0.8,1.8c-0.4,0.6-0.9,1.1-1.6,1.5
	c-0.7,0.4-1.5,0.6-2.6,0.6c-0.4,0-0.7,0-1,0c-0.4,0-0.7-0.1-0.9-0.1v-10.4c0.4,0,0.8-0.1,1.2-0.1c0.4,0,0.9,0,1.4,0
	c1.5,0,2.7,0.5,3.4,1.4c0.7,1,1.1,2.2,1.1,3.7C792,252,792,252.6,791.8,253.2z M713.7,267.8L713.7,267.8c-0.9,0.1-1.8,0.1-2.7,0.1
	c-0.9,0-1.8,0.1-2.7,0.1l-0.1,0c-0.8,0-1.6,0-2.3,0.1c-0.6,0-1.1,0-1.3,0v-10.1c0.8,0,1.7,0,2.6,0c0.8,0,1.7,0,2.6,0.1l1.4,0.1
	c0.5,0,1,0.1,1.5,0.1l0.1,0l0-0.1c-0.1-0.3-0.2-0.7-0.2-1.3c0-0.3,0-0.5,0.1-0.7c0-0.2,0.1-0.4,0.1-0.6l0-0.1l-0.1,0
	c-0.5,0-1.1,0.1-1.8,0.1c-0.7,0-1.4,0.1-2.3,0.1c-0.8,0-1.5,0-2.2,0h-1.7v-8.8h3.4c0.4,0,0.7,0,0.9,0c0.3,0,0.6,0,0.9,0.1l3.6,0.2
	l0.1,0l0-0.1c-0.1-0.3-0.2-0.8-0.2-1.4c0-0.2,0-0.4,0.1-0.6c0-0.1,0.1-0.3,0.1-0.4l0.1-0.2l-0.1,0c-1.4,0-2.7,0.1-3.8,0.1
	c-1.2,0-2.2,0.1-3.1,0.1c-0.5,0-1.1,0-1.7,0c-0.6,0-1.2,0-1.8-0.1c-0.6,0-1.2,0-1.7-0.1l-0.1,0c-0.6,0-1.1-0.1-1.6-0.1l-0.1,0l0,0.1
	c0.1,1,0.1,2.1,0.2,3.4c0,1.2,0.1,2.4,0.1,3.8c0,1.2,0,2.4,0.1,3.4c0,1,0,1.7,0,2.1c0,0.4,0,1,0,1.8c0,0.6,0,1.2,0,1.9l0,2.9
	c0,0.8,0,1.5-0.1,2c0,0.4,0,0.8,0,1.2c0,0.4,0,0.8,0,1.2c0,0.7-0.1,1.4-0.1,2.4l0,0.1l0.1,0c2.4-0.1,4.8-0.2,7.1-0.2
	c2.4,0,4.7,0.1,7,0.2l0.1,0l0-0.1c-0.1-0.3-0.2-0.8-0.2-1.3C713.4,268.6,713.5,268.1,713.7,267.8L713.7,267.8z M481.1,267.4
	c-0.5-1.1-1-2.3-1.5-3.4c-0.4-0.9-0.9-2.2-1.5-3.3c-0.5-1.1-0.9-2-1.2-2.9c-0.3-0.7-0.7-1.5-1.2-2.7c-0.4-0.9-0.8-2.1-1.4-3.3
	c-0.5-1.2-1-2.4-1.5-3.7c-0.5-1.3-1-2.6-1.4-3.9l0,0l0,0c-0.4,0.1-0.8,0.2-1.2,0.2c-0.2,0-0.4,0-0.6-0.1c-0.2,0-0.4-0.1-0.6-0.1l0,0
	l0,0c-0.2,0.8-0.5,1.7-0.9,2.7c-0.4,1-0.8,2.1-1.4,3.5c-0.5,1.3-1.2,2.8-2,4.6c-0.5,1.1-1,2.3-1.6,3.6l-1,2.2l-4.4,9.8l0,0.1l0.1,0
	c0.3-0.1,0.6-0.1,0.8-0.2c0.3,0,0.6-0.1,0.9-0.1c0.3,0,0.6,0,0.9,0.1c0.3,0.1,0.6,0.1,0.9,0.2l0,0l0,0c0.3-1.1,0.7-2.4,1.3-3.8
	c0.6-1.5,1.2-3,1.7-4.4c0.7,0,1.4-0.1,2.2-0.1c0.8,0,1.5,0,2.3,0c0.8,0,1.6,0,2.4,0c0.8,0,1.6,0.1,2.4,0.1l1.6,4l1.6,4.2l0,0l0,0
	c0.4,0,0.8-0.1,1.3-0.1c0.5-0.1,1-0.1,1.5-0.1c0.5,0,1.1,0,1.7,0.1c0.6,0.1,1,0.1,1.3,0.1l0.1,0l0-0.1
	C482.1,269.5,481.6,268.4,481.1,267.4z M470.7,260c-0.5,0-1.1,0-1.7,0c-0.7,0-1.3,0-2-0.1c-0.6,0-1.3-0.1-1.9-0.1l3.8-9.1l3.5,9.1
	C471.9,259.9,471.3,260,470.7,260z M516.9,269.8c0-0.2,0-0.4,0-0.7c0-0.4,0-0.7,0.1-0.9c0-0.2,0.1-0.4,0.1-0.6l0-0.1l-0.1,0
	c-0.5,0.1-1.3,0.2-2.1,0.2c-0.9,0.1-1.8,0.1-2.7,0.1c-0.8,0-1.7,0-2.4,0h-2.1c0-0.8,0-1.6-0.1-2.5l0-0.8c0-1.2,0-2.5,0-3.8
	c0-1.3,0-2.8,0-4.2c0-1.3,0-2.6,0.1-4c0-1.3,0.1-2.6,0.1-4c0-1.3,0.1-2.6,0.2-4.1l0-0.1l-0.1,0c-0.5,0.1-0.9,0.1-1.3,0.2
	c-0.4,0-0.8,0.1-1.3,0.1c-0.5,0-1,0-1.3,0c-0.4,0-0.8-0.1-1.3-0.2l-0.1,0v0.1c0,0.2,0,0.5,0,1c0,0.5,0,1,0.1,1.5c0,0.5,0,1,0.1,1.5
	c0,0.5,0,0.8,0,1c0,0.8,0,1.5,0.1,2l0,0.4c0,0.4,0,0.7,0,1c0,0.4,0,0.7,0,1v6.3c0,0.2,0,0.5,0,1c0,0.4,0,0.9,0,1.4l0,0.5
	c0,0.6,0,1.4-0.1,2.3c0,0.7,0,1.5-0.1,2.3c0,0.7,0,1.3-0.1,1.8c0,0.5,0,0.8,0,0.9v0.1l0.1,0c1.2-0.1,2.4-0.1,3.7-0.2
	c1.1,0,2.3-0.1,3.5-0.1c0.5,0,1.1,0,1.7,0c0.7,0,1.3,0,1.9,0.1c0.7,0,1.3,0.1,1.9,0.1c0.6,0,1.2,0.1,1.6,0.1l0.1,0l0-0.1
	C517,270.2,517,270,516.9,269.8z M617.3,175.6h19.3v-4.3c0-22-12.8-41.5-32.6-52.5c19.8-11,32.6-30.5,32.6-52.5v-4.3h-4.3h-15v4.3
	c0,23.7-20.6,43-45.8,43c-25.2,0-45.8-19.3-45.8-43v-4.3h-19.3v4.3c0,21.8,12.6,41.2,32.1,52.2c-4.5,2.5-8.8,5.3-12.6,8.8
	c-12.6,11.7-19.6,27.2-19.6,43.9v4.3h19.3v-4.3c0-11.6,4.8-22.4,13.6-30.6c6.3-5.8,14-9.7,22.4-11.4c3.2-0.6,6.4-1,9.7-1
	c25.3,0,45.8,19.3,45.8,42.9V175.6z M334.9,62.1v94.2c-52.5-4.4-93.1-42.9-93.1-89.7v-4.3l-4.4-0.2h-15v113.4h19.3v-50.2
	c21.2,29.7,57.2,48.6,97.3,50.2c0.2,0,5.5,0.1,5.5,0.1l5.4-0.1h4.3V62.1h-4.3H334.9z M438,198.3c-3.2,0-5.8,2.2-6.5,5.2
	c-0.7-3-3.3-5.2-6.5-5.2c-3.7,0-6.7,3-6.7,6.6c0,1.3,0.4,2.4,1,3.5l0,0l0.2,0.2l11.8,14.9l12.3-14.9h0c0.7-1.1,1.1-2.3,1.1-3.7
	C444.7,201.3,441.7,198.3,438,198.3z M481.1,62.2v4.3c0,26.8-22.2,48.5-49.6,48.5s-49.6-21.8-49.6-48.5v-4.3h-19.3v4.3
	c0,33.3,25.8,61.4,59.3,66.1v43.1h19.3v-43.1c33.5-4.7,59.3-32.8,59.3-66.1v-4.3h-4.3H481.1z"/>
</svg>
