<?xml version="1.0" encoding="utf-8"?>
<!-- Generator: Adobe Illustrator 28.0.0, SVG Export Plug-In . SVG Version: 6.00 Build 0)  -->
<svg version="1.1" id="PUDLISZKI_x5F_logo" xmlns="http://www.w3.org/2000/svg" xmlns:xlink="http://www.w3.org/1999/xlink" x="0px"
	 y="0px" viewBox="0 0 164.3 101.9" style="enable-background:new 0 0 164.3 101.9;" xml:space="preserve">
<style type="text/css">
	.st0{fill:#FFFFFF;}
	.st1{clip-path:url(#SVGID_00000127038040625573673040000001634711010473266059_);fill:#FFFFFF;}
</style>
<g>
	<polygon class="st0" points="74.6,68.2 74.6,51.1 81,51.1 81,47.4 63.6,47.4 63.6,51.1 70,51.1 70,68.2 	"/>
	<path class="st0" d="M27.8,54.7c0.2,0.5,0.7,1.7,1.8,3.2L37,68.2h4.2V47.4H37v14.1h-0.1c-0.1-0.5-0.8-1.7-1.9-3.3l-7.4-10.7h-4.2
		v20.8h4.3L27.8,54.7L27.8,54.7z"/>
	<rect x="126.9" y="47.4" class="st0" width="4.6" height="20.8"/>
	<path class="st0" d="M140.7,47.4c-3.9,6.1-5.9,13.8-7,20.8h4.6c0.2-1.6,0.6-3.4,0.9-5h8c0.4,1.7,0.7,3.4,0.9,5h5.1
		c-1.2-7.1-3.2-14.5-7-20.8H140.7z M139.9,59.7c0.8-3.2,1.9-6.1,3.3-8.8h0.1c1.4,2.7,2.4,5.7,3.3,8.8H139.9z"/>
	<path class="st0" d="M43.9,47.4v12.6c0,6.7,4.3,8.8,10.6,8.8c2.4,0,4.9-0.3,7.3-0.7V47.4h-4.5v17.5c-0.9,0.2-1.7,0.3-2.6,0.3
		c-3.2,0-6.2-1.2-6.2-4.9v-13H43.9z"/>
	<path class="st0" d="M119,50.7c1.3,0,2.8,0.4,4.2,1.1l1.5-3.8c-1.5-0.7-3.4-1.2-5.9-1.2c-7,0-10.3,5.4-10.3,11.2
		c0,6.1,4,10.7,10.3,10.7c2,0,4.5-0.7,6-1.4l-1.2-3.6c-1,0.6-2.5,1.1-4.2,1.1c-3.3,0-6.1-2.6-6.1-6.9
		C113.2,54.6,114.6,50.7,119,50.7"/>
	<rect x="101.4" y="47.4" class="st0" width="4.6" height="20.8"/>
	<path class="st0" d="M98.5,53.3c0-5.2-4.8-6-9-6h-6.7v20.8h4.6v-8.3h1.4c0.5,0,0.9,0.1,1.4,1l3.8,7.3h5.5l-5.6-9.5
		C96.6,58.1,98.5,56.1,98.5,53.3 M89.9,56.5h-2.5V51h2.2c1.8,0,4.1,0.3,4.1,2.7C93.7,55.9,91.6,56.5,89.9,56.5"/>
	<g>
		<g>
			<defs>
				<rect id="SVGID_1_" x="9.7" y="21.5" width="59.1" height="46.7"/>
			</defs>
			<clipPath id="SVGID_00000097479611165109229990000011873013380023506876_">
				<use xlink:href="#SVGID_1_"  style="overflow:visible;"/>
			</clipPath>
			<path style="clip-path:url(#SVGID_00000097479611165109229990000011873013380023506876_);fill:#FFFFFF;" d="M68.8,34.8
				C63,26.5,53.5,21.5,42.8,21.5c-18.2,0-33,15.1-33,33.6c0,4.6,0.9,9.1,2.6,13.1h5.9c-2.3-4.2-3.7-9-3.7-14.1
				c0-16.4,13.7-29.7,30.6-29.7C54.6,24.3,62.9,28.3,68.8,34.8"/>
		</g>
	</g>
</g>
</svg>
