<?xml version="1.0" encoding="utf-8"?>
<!-- Generator: Adobe Illustrator 28.0.0, SVG Export Plug-In . SVG Version: 6.00 Build 0)  -->
<svg version="1.1" id="Warstwa_1" xmlns="http://www.w3.org/2000/svg" xmlns:xlink="http://www.w3.org/1999/xlink" x="0px" y="0px"
	 viewBox="0 0 1114 406" style="enable-background:new 0 0 1114 406;" xml:space="preserve">
<style type="text/css">
	.st0{fill:#FFFFFF;}
</style>
<path class="st0" d="M531.4,277.7c-3.1-0.1-4.9-1.9-6.2-4.6c-9.6-19.5-19.1-39-29-58.4c-10.2-20.1-20.9-40-31.4-59.9
	c-1.2-2.2-2.2-4.4,0.1-6.4c2.2-2,4.4-0.8,6.5,0.5c13.2,8.5,26.4,17,39.5,25.5c7.4,4.8,11.4,4.3,16.6-2.7
	c21.2-28.2,43.2-55.8,65.7-82.9c17.5-21,35.4-41.7,53.6-62c1.4-1.6,3-3.2,5.1-1.7c2.2,1.5,1.1,3.5,0.1,5.3
	c-26.4,49.8-50.9,100.5-74.4,151.8c-13.6,29.5-26.8,59.2-39.5,89.2C536.1,276.1,534.5,277.6,531.4,277.7z"/>
<path class="st0" d="M389.4,343.8c6.3-0.5,12.2,0.3,18.1-0.7c5.5-1,10.2-3.1,11.9-8.8c1.9-6.3,2-12.8-2.2-18.4
	c-2.8-3.7-7.1-4.7-11.5-4.9c-6-0.3-12.1-0.2-18.2-0.2c-3.3,0-4,2.2-4,5c0.1,17.2,0,34.5,0,51.7c0,5.7-0.1,11.4,0,17.1
	c0,2.4-0.8,3.4-3.3,3.3c-3-0.2-5.9-0.2-8.9,0c-2.6,0.2-3.2-1-3.2-3.4c0.1-28.4,0.1-56.8,0-85.2c0-1.9,0-3.5,2.7-3.4
	c12.2,0.3,24.5-0.4,36.7,0.4c3,0.2,5.9,0.8,8.7,1.7c11.5,3.4,18.3,11.9,19.5,24.1c1.5,15.3-3.8,25-17.7,32c-2.4,1.2-1.1,2-0.3,3.1
	c6.3,8.8,12.6,17.6,18.8,26.4c0.7,1,2.1,2,1.3,3.4c-0.7,1.4-2.1,0.7-3.2,0.7c-4.2,0.1-8.3,0-12.5,0c-1.6,0-2.6-0.5-3.5-1.8
	c-9.6-13.7-19.3-27.4-28.9-41C389.7,344.8,389.6,344.4,389.4,343.8z"/>
<path class="st0" d="M477.3,360.1c-6.9,0-13.8,0.1-20.7-0.1c-3.3-0.1-3.6,1.2-2.7,3.8c3.1,9.1,12.8,13.9,23.2,11.4
	c3.6-0.9,7-2.3,9.8-4.8c1.5-1.4,2.6-1.3,3.7,0.4c0.9,1.2,2,2.3,3,3.5c4,4.7,4.2,5-1.1,8.6c-12.2,8.4-25.3,8.9-38,2
	c-12.9-7-17.3-19.2-16.2-33.2c1.5-18.5,14.3-31.1,31.1-31.5c15.2-0.4,27,9.4,30.5,25.6c0.8,3.5,1,7,1.3,10.6c0.2,2.9-0.6,4-3.7,3.9
	C490.8,359.9,484.1,360.1,477.3,360.1z M470.6,349c4.5,0,9-0.1,13.5,0c3,0.1,3.4-1.1,2.7-3.7c-2.2-7.8-7.7-12-16-11.9
	c-7.8,0.1-14.4,5.3-16.2,12.6c-0.6,2.3,0.3,3,2.5,3C461.6,349,466.1,349,470.6,349z"/>
<path class="st0" d="M741.7,364.4c0,8,0,14.4,0,20.9c0,1.3,0.2,2.6-1.9,2.5c-11.5-0.3-23.1,0.9-34.5-0.6
	c-16.1-2.1-23.9-18.5-15.8-32.8c3-5.3,8-7.6,13.6-8.8c6.8-1.5,13.7-1.3,20.6-1.1c3.2,0.1,3.7-1,2.7-3.8c-1.6-4.7-5.4-6.4-9.9-7
	c-5.8-0.8-11.4,0.1-16.8,2.2c-2.5,0.9-3.8,0.5-4.6-1.9c-0.6-1.7-1.4-3.3-2.2-4.9c-2.1-4.5-2.1-4.6,2.8-6.1c8.9-2.8,17.8-4.1,27-1.8
	c10.9,2.8,17.3,10.2,18.6,21.7C742.2,350.6,741.5,358.3,741.7,364.4z M717.4,375.7c0,0,0,0.1,0,0.1c2.6,0,5.2-0.1,7.8,0
	c1.5,0,2.1-0.5,2.1-2c-0.1-4.8-0.1-9.5,0-14.3c0-1.7-0.6-2.4-2.3-2.4c-5.6-0.1-11.2-0.5-16.7,0.6c-5.4,1.1-7.6,3.8-7.5,9.1
	c0.2,5.3,3,8.3,8.4,8.8C712,375.9,714.7,375.7,717.4,375.7z"/>
<path class="st0" d="M619.2,355c0,18.5-12.9,33.3-29.9,34.3c-20.3,1.2-36.4-15.9-34.6-36.8c1.4-16.5,11.1-28.5,25.6-31.7
	c19.5-4.3,37.6,10.1,38.9,30.9C619.2,352.8,619.2,353.9,619.2,355z M604.4,354.9c0.1-4.4-0.7-8.5-2.9-12.3
	c-3.3-5.8-8.3-8.6-14.9-8.5c-6.8,0.2-11.9,3.4-14.7,9.5c-3.4,7.4-3.4,15,0.1,22.4c4.1,8.8,14.9,12.3,23.2,7.4
	C602.2,369.3,604.1,362.5,604.4,354.9z"/>
<path class="st0" d="M639.4,325.9c12.1-9.8,28.5-5.8,35.2,2.1c4.5,5.3,6.5,11.6,6.6,18.4c0.2,12.8,0,25.7,0.1,38.5
	c0,2.1-0.6,3-2.8,2.9c-3.3-0.1-6.7-0.2-10,0c-2.5,0.1-3-1-3-3.2c0.1-11.4,0-22.8,0-34.2c0-1.4,0-2.9-0.1-4.3
	c-1.1-12.1-10.3-13.3-17.9-11c-5.1,1.6-6.9,6-7,11c-0.2,8-0.2,15.9-0.2,23.9c0,4.9-0.1,9.7,0,14.6c0,2.2-0.6,3.3-3,3.2
	c-3.3-0.1-6.7-0.1-10,0c-2.3,0.1-2.9-0.9-2.9-3c0-20.2,0.1-40.4,0-60.6c0-2.3,0.9-2.9,3-2.8c2.4,0.1,4.8,0,7.1,0
	C638.9,321.5,638.9,321.5,639.4,325.9z"/>
<path class="st0" d="M527.9,366.2c-4.6,6.7-8.9,13-13.1,19.3c-1.1,1.7-2.4,2.3-4.4,2.2c-3.2-0.2-6.4,0-9.6-0.1
	c-1.1,0-2.6,0.6-3.2-0.8c-0.5-1.1,0.6-2,1.2-2.8c6.3-9.3,12.6-18.7,19.1-27.9c1.3-1.9,1.2-3.1-0.1-4.9c-5.9-8.5-11.7-17-17.5-25.5
	c-0.6-0.9-1.6-1.7-1-2.8c0.6-1.2,1.9-0.6,2.9-0.7c0.7-0.1,1.4,0.1,2.1,0c8.2-1.7,13.3,1.8,16.8,9c1.4,3,3.7,5.5,5.5,8.3
	c1.1,1.7,1.7,1.4,2.7-0.1c3.3-5,6.8-10,10.1-15.1c1-1.6,2.1-2.3,4-2.2c3.4,0.2,6.9,0,10.3,0c1,0,2.3-0.5,2.8,0.8
	c0.4,1-0.4,1.8-1,2.5c-5.7,8.4-11.4,17-17.3,25.2c-1.7,2.4-1.5,3.9,0.1,6.1c6.3,9,12.5,18.2,18.7,27.3c0.6,0.8,1.6,1.7,1,2.8
	c-0.6,1.2-1.9,0.5-2.9,0.7c-9.5,1.8-15.9-1.7-20-10.5C533.5,373.3,530.6,370.1,527.9,366.2z"/>
<path class="st0" d="M752.1,320.2c-0.1,4.2-2.9,7.3-6.7,7.3c-3.6,0-6.7-3.4-6.7-7.4c0-4.3,3-7.6,6.9-7.5
	C749.3,312.8,752.1,316.1,752.1,320.2z M742.7,315.7c-2.6,2.2-3.1,5.5-1.2,8c1.8,2.3,4.7,2.7,6.9,1c2.4-1.9,2.8-5.9,0.8-8.4
	C747.5,314.1,745.1,313.9,742.7,315.7L742.7,315.7z"/>
<path class="st0" d="M470.6,349c-4.5,0-9-0.1-13.5,0c-2.2,0-3-0.7-2.5-3c1.8-7.3,8.3-12.4,16.2-12.6c8.3-0.1,13.8,4.1,16,11.9
	c0.7,2.6,0.3,3.8-2.7,3.7C479.7,348.9,475.1,349,470.6,349z"/>
<path class="st0" d="M742.6,315.8c2.5-1.9,4.9-1.7,6.6,0.5c1.9,2.5,1.6,6.5-0.8,8.4c-2.2,1.8-5.1,1.4-6.9-1
	C739.6,321.2,740.1,317.9,742.6,315.8c0.1,1.7,0.1,3.4,0.3,5.1c0.1,1-0.5,2.6,0.6,2.9c1.9,0.4,0.5-1.9,1.5-2.4
	c1.2,0.4,0.7,3,3.1,2.3c-0.5-1.5-1-2.7-0.1-4.3c0.9-1.6-0.2-2.9-2-3.3C744.9,315.9,743.7,315.9,742.6,315.8z"/>
<path class="st0" d="M742.6,315.8c1.1,0.1,2.3,0.1,3.4,0.3c1.8,0.4,3,1.6,2,3.3c-0.9,1.6-0.4,2.9,0.1,4.3c-2.4,0.6-1.8-2-3.1-2.3
	c-1.1,0.5,0.3,2.9-1.5,2.4c-1.2-0.3-0.6-1.9-0.6-2.9C742.8,319.2,742.8,317.5,742.6,315.8C742.7,315.7,742.6,315.8,742.6,315.8z"/>
</svg>
