<?xml version="1.0" encoding="utf-8"?>
<!-- Generator: Adobe Illustrator 28.0.0, SVG Export Plug-In . SVG Version: 6.00 Build 0)  -->
<svg version="1.1" id="Warstwa_1" xmlns="http://www.w3.org/2000/svg" xmlns:xlink="http://www.w3.org/1999/xlink" x="0px" y="0px"
	 viewBox="0 0 1304.2 316.5" style="enable-background:new 0 0 1304.2 316.5;" xml:space="preserve">
<style type="text/css">
	.st0{fill:#FFFFFF;}
</style>
<path id="path8" class="st0" d="M261,75.8h27.1V209H261V75.8z M549.2,75.9l-76.1,83.7l-80.3-83.7h-9.8v133.2h6.4V105l71.7,78.8
	l71.7-78.8v104.1h25.6V75.9H549.2z M812.7,75.9l-76.1,83.7l-80.2-83.7h-9.8v133.2h6.4V105l71.7,78.8l71.7-78.8v104.1H822V75.9H812.7
	z M903.7,75.9v133.2h147.9v-6.5H930.9v-61.3h72.3v-6.1h-72.3V81.1h113.4v-5.2H903.7z M1126.7,75.9v133.2h144.7v-6.5h-117.9V75.9
	H1126.7z M124.4,145.2c22.9,0,28.3-18,28.3-32.2c0-13.9-5.4-32.7-27.3-32.7H70.5v64.9H124.4z M43,75.2h82.8
	c35.7,0,53.2,13.9,53.2,37.3c0,18.9-12.8,34.3-35,37.7l45.4,58.9h-29.3l-45.4-58.6H70.5v58.6H43V75.2z"/>
<path id="path10" class="st0" d="M1234.8,232.4l-0.3,0.3v41.1l0.3,0.3h5.3l0.3-0.3v-31.8l24.4,31.8l0.6,0.3h5.7l0.3-0.3v-41.1
	l-0.3-0.3h-5.4l-0.3,0.3v31.8l-24.4-31.8l-0.6-0.3H1234.8z M1182.6,237.7c8.5-0.2,15.6,6.6,15.8,15.2s-6.6,15.6-15.2,15.8
	s-15.6-6.6-15.8-15.2c0-0.1,0-0.2,0-0.3C1167.3,244.8,1174.1,237.8,1182.6,237.7C1182.5,237.7,1182.6,237.7,1182.6,237.7
	 M1182.6,231.5c-12,0.2-21.6,10-21.4,22c0.2,12,10,21.6,22,21.4c11.9-0.2,21.4-9.8,21.4-21.7
	C1204.5,241.1,1194.6,231.4,1182.6,231.5 M1102.6,238.3h8.3c8.9,0,15.2,6.5,15.2,14.9c0,8.3-6.2,14.9-15.2,14.9h-8.3V238.3z
	 M1096.9,232.4l-0.3,0.3v41.1l0.3,0.3h14c12.8,0,22-9.2,22-20.8s-9.2-20.8-22-20.8L1096.9,232.4z M1027.9,232.4l-0.3,0.3v41.1
	l0.3,0.3h5.4l0.3-0.3v-31.8l24.4,31.8l0.6,0.3h5.7l0.3-0.3v-41.1l-0.3-0.3h-5.3l-0.3,0.3v31.8l-24.4-31.8l-0.6-0.3L1027.9,232.4z
	 M975.7,237.7c8.5-0.2,15.6,6.6,15.8,15.2c0.2,8.5-6.6,15.6-15.2,15.8c-8.5,0.2-15.6-6.6-15.8-15.2c0-0.1,0-0.2,0-0.3
	C960.4,244.8,967.2,237.8,975.7,237.7C975.6,237.7,975.7,237.7,975.7,237.7 M975.7,231.5c-12,0.2-21.6,10-21.4,22
	c0.2,12,10,21.6,22,21.4c11.9-0.2,21.4-9.8,21.4-21.7C997.6,241.1,987.7,231.4,975.7,231.5 M903.9,232.4l-0.2,0.2v41.2l0.2,0.2h25.1
	l0.2-0.2v-5.4l-0.2-0.3h-19.4v-35.5l-0.2-0.2L903.9,232.4z"/>
</svg>
