<svg xmlns="http://www.w3.org/2000/svg" viewBox="0 0 1114 406" style="enable-background:new 0 0 1114 406" fill="#fff" xml:space="preserve"><path d="M720.9 254.5v-72.2h-92.1v72.2h-26.1v-161h26.1v69h92.1v-69H747v161h-26.1zm-392.8 58h4.1l-14.3-33.7-14.3 33.7h4.1l3.7-9.2h13.1l3.6 9.2zm-15.5-12.2 5.3-13.3 5.3 13.3h-10.6zm246.7 12.2h4.1l-14.3-33.7-14.3 33.7h4.1l3.7-9.2h13.1l3.6 9.2zm-15.5-12.2 5.3-13.3 5.3 13.3h-10.6z" style="fill-rule:evenodd;clip-rule:evenodd"/><path d="M705.9 280.9v31.6h4.1v-31.6h-4.1zm-332-187.4v161h26.2v-161h-26.2zm-63.6 0-51.6 109.1c.3-.3-52.2-109.1-52.2-109.1h-27.1l79.1 161 78.9-161h-27.1zm212 139.4c-38.4 0-66.5-24.7-66.5-58.9s28.1-58.9 66.5-58.9c16.9 0 32.4 5.4 44.5 14.3v-25.5c-13.1-6.6-28.3-10.4-44.5-10.4-49.9 0-90.4 36-90.4 80.5s40.5 80.5 90.4 80.5c16.2 0 31.4-3.8 44.5-10.4v-25.5c-12 8.9-27.5 14.3-44.5 14.3zM371 297.2v12.3h4c5.4 0 7.8-2.2 7.8-6.1 0-3.8-2.5-6.2-8.2-6.2H371zm0-13.3v10.2h1.8c2.4 0 4.1-.3 5.2-.8 1.5-.8 2.2-1.7 2.2-3.9s-.7-3.8-2.1-4.6c-1-.6-2.8-.8-5.3-.8H371v-.1zm-3.1 28.6v-31.7h5.2c7.1 0 10.6 2.9 10.6 8.6 0 2.8-1 4.8-3.1 6.2 1.8.4 3.3 1.4 4.4 2.9 1.1 1.5 1.3 3.2 1.3 5.2 0 3-1.1 5.3-3.3 6.8-2 1.4-4.3 2.1-7.7 2.1h-7.4v-.1zm70-29.4c-3.7 0-6.8 1.3-9.4 3.8-2.6 2.6-3.9 5.6-3.9 9.2 0 3.6 1.3 6.6 3.9 9.2 2.6 2.6 5.7 3.9 9.4 3.9s6.8-1.3 9.4-3.9c2.6-2.6 3.9-5.6 3.9-9.2 0-3.6-1.3-6.7-3.9-9.2-2.6-2.5-5.7-3.8-9.4-3.8zm0-3.2c4.6 0 8.6 1.6 11.9 4.8 3.3 3.2 5 7 5 11.6 0 4.5-1.7 8.4-5 11.5-3.3 3.2-7.3 4.7-11.9 4.7-4.6 0-8.6-1.6-11.9-4.7-3.3-3.2-5-7-5-11.5s1.7-8.4 5-11.6c3.3-3.2 7.2-4.8 11.9-4.8zm216 3.2c-3.7 0-6.8 1.3-9.4 3.8-2.6 2.6-3.9 5.6-3.9 9.2 0 3.6 1.3 6.6 3.9 9.2 2.6 2.6 5.7 3.9 9.4 3.9s6.8-1.3 9.4-3.9c2.6-2.6 3.9-5.6 3.9-9.2 0-3.6-1.3-6.7-3.9-9.2-2.6-2.5-5.7-3.8-9.4-3.8zm0-3.2c4.6 0 8.6 1.6 11.9 4.8 3.3 3.2 5 7 5 11.6 0 4.5-1.7 8.4-5 11.5-3.3 3.2-7.3 4.7-11.9 4.7-4.6 0-8.6-1.6-11.9-4.7-3.3-3.2-5-7-5-11.5s1.7-8.4 5-11.6c3.3-3.2 7.2-4.8 11.9-4.8zm214.7 4.9-2.8 1.8c-1.3-2.3-3.1-3.4-5.4-3.4-1.4 0-2.6.5-3.7 1.4-1 .9-1.6 2.1-1.6 3.5 0 1.2.6 2.2 1.7 3.1.7.5 1.7 1.1 3.3 1.8l2.1.9c2.5 1.1 4.3 2.2 5.3 3.2 1.5 1.5 2.3 3.4 2.3 5.6 0 2.7-1 5-2.9 6.9-1.9 1.9-4.3 2.8-7 2.8-2.5 0-4.6-.7-6.4-2.2-1.8-1.5-2.9-3.5-3.4-5.9l3.4-1c.2 1.6.9 3 2.1 4.2 1.2 1.1 2.6 1.7 4.2 1.7 1.7 0 3.2-.6 4.5-1.8 1.3-1.2 1.9-2.6 1.9-4.4 0-1.6-.6-3-1.8-4-.8-.7-2.1-1.4-4-2.3l-1.9-.8c-2.2-.9-3.8-1.9-4.8-2.9-1.4-1.4-2-3.1-2-5.1 0-2.4.9-4.3 2.7-5.9 1.7-1.4 3.7-2.2 6.1-2.2 3.7.1 6.4 1.7 8.1 5zm-66.7 27.7v-31.6h17.4v3.3h-13.8v9.4h12.8v3.3h-12.8v12.4h13.8v3.2h-17.4zm-539.7-31.6v28.4h8.8v3.2h-12.3v-31.6h3.5zm339.3 3.3v28.3H598v-28.3h-7.7v-3.3h18.9v3.3h-7.7zm-111.6 0v11.4h1.1c2.4 0 4.3-.3 5.5-1 1.7-.9 2.5-2.4 2.5-4.7 0-2.4-.8-4-2.4-4.8-1.1-.6-3-.9-5.6-.9h-1.1zm0 14.4v13.9h-3.5v-31.7h4.6c7.7 0 11.6 2.9 11.6 8.7 0 2.4-.7 4.5-2.1 6.1-1.4 1.6-3.4 2.5-5.8 2.7l10.1 14.2h-4.3l-9.6-13.9h-1zm262.5-14.4v11.4h1.1c2.4 0 4.3-.3 5.5-1 1.7-.9 2.5-2.4 2.5-4.7 0-2.4-.8-4-2.4-4.8-1.2-.6-3-.9-5.6-.9h-1.1zm0 14.4v13.9h-3.5v-31.7h4.6c7.7 0 11.6 2.9 11.6 8.7 0 2.4-.7 4.5-2.1 6.1-1.4 1.6-3.4 2.5-5.8 2.7l10.1 14.2H763l-9.6-13.9h-1zm184-205.1-71.2 91.8v69.2h-24.3v-69.2l-71.2-91.8h28l55.3 71.7 55.4-71.7h28z"/></svg>