<?xml version="1.0" encoding="utf-8"?>
<!-- Generator: Adobe Illustrator 28.0.0, SVG Export Plug-In . SVG Version: 6.00 Build 0)  -->
<svg version="1.1" id="Warstwa_1" xmlns="http://www.w3.org/2000/svg" xmlns:xlink="http://www.w3.org/1999/xlink" x="0px" y="0px"
	 viewBox="0 0 1114 406" style="enable-background:new 0 0 1114 406;" xml:space="preserve">
<style type="text/css">
	.st0{fill-rule:evenodd;clip-rule:evenodd;}
</style>
<g>
	<polygon class="st0" points="720.9,254.5 720.9,182.3 628.8,182.3 628.8,254.5 602.7,254.5 602.7,93.5 628.8,93.5 628.8,162.5 
		720.9,162.5 720.9,93.5 747,93.5 747,254.5 720.9,254.5 	"/>
	<path class="st0" d="M328.1,312.5h4.1l-14.3-33.7l-14.3,33.7h4.1l3.7-9.2h13.1L328.1,312.5L328.1,312.5z M312.6,300.3l5.3-13.3
		l5.3,13.3H312.6L312.6,300.3z"/>
	<path class="st0" d="M559.3,312.5h4.1l-14.3-33.7l-14.3,33.7h4.1l3.7-9.2h13.1L559.3,312.5L559.3,312.5z M543.8,300.3l5.3-13.3
		l5.3,13.3H543.8L543.8,300.3z"/>
	<polygon points="705.9,280.9 705.9,312.5 710,312.5 710,280.9 705.9,280.9 	"/>
	<polygon points="373.9,93.5 373.9,254.5 400.1,254.5 400.1,93.5 373.9,93.5 	"/>
	<path d="M310.3,93.5l-51.6,109.1c0.3-0.3-52.2-109.1-52.2-109.1h-27.1l79.1,161l78.9-161H310.3L310.3,93.5z"/>
	<path d="M522.3,232.9c-38.4,0-66.5-24.7-66.5-58.9c0-34.2,28.1-58.9,66.5-58.9c16.9,0,32.4,5.4,44.5,14.3v-25.5
		c-13.1-6.6-28.3-10.4-44.5-10.4c-49.9,0-90.4,36-90.4,80.5c0,44.5,40.5,80.5,90.4,80.5c16.2,0,31.4-3.8,44.5-10.4v-25.5
		C554.8,227.5,539.3,232.9,522.3,232.9L522.3,232.9z"/>
	<path d="M371,297.2v12.3h4c5.4,0,7.8-2.2,7.8-6.1c0-3.8-2.5-6.2-8.2-6.2H371L371,297.2z M371,283.9v10.2h1.8c2.4,0,4.1-0.3,5.2-0.8
		c1.5-0.8,2.2-1.7,2.2-3.9c0-2.2-0.7-3.8-2.1-4.6c-1-0.6-2.8-0.8-5.3-0.8H371L371,283.9z M367.9,312.5v-31.7h5.2
		c7.1,0,10.6,2.9,10.6,8.6c0,2.8-1,4.8-3.1,6.2c1.8,0.4,3.3,1.4,4.4,2.9c1.1,1.5,1.3,3.2,1.3,5.2c0,3-1.1,5.3-3.3,6.8
		c-2,1.4-4.3,2.1-7.7,2.1H367.9L367.9,312.5z"/>
	<path d="M437.9,283.1c-3.7,0-6.8,1.3-9.4,3.8c-2.6,2.6-3.9,5.6-3.9,9.2c0,3.6,1.3,6.6,3.9,9.2c2.6,2.6,5.7,3.9,9.4,3.9
		c3.7,0,6.8-1.3,9.4-3.9c2.6-2.6,3.9-5.6,3.9-9.2c0-3.6-1.3-6.7-3.9-9.2C444.7,284.4,441.6,283.1,437.9,283.1L437.9,283.1z
		 M437.9,279.9c4.6,0,8.6,1.6,11.9,4.8c3.3,3.2,5,7,5,11.6c0,4.5-1.7,8.4-5,11.5c-3.3,3.2-7.3,4.7-11.9,4.7c-4.6,0-8.6-1.6-11.9-4.7
		c-3.3-3.2-5-7-5-11.5c0-4.5,1.7-8.4,5-11.6C429.3,281.5,433.2,279.9,437.9,279.9L437.9,279.9z"/>
	<path d="M653.9,283.1c-3.7,0-6.8,1.3-9.4,3.8c-2.6,2.6-3.9,5.6-3.9,9.2c0,3.6,1.3,6.6,3.9,9.2c2.6,2.6,5.7,3.9,9.4,3.9
		c3.7,0,6.8-1.3,9.4-3.9c2.6-2.6,3.9-5.6,3.9-9.2c0-3.6-1.3-6.7-3.9-9.2C660.7,284.4,657.6,283.1,653.9,283.1L653.9,283.1z
		 M653.9,279.9c4.6,0,8.6,1.6,11.9,4.8c3.3,3.2,5,7,5,11.6c0,4.5-1.7,8.4-5,11.5c-3.3,3.2-7.3,4.7-11.9,4.7c-4.6,0-8.6-1.6-11.9-4.7
		c-3.3-3.2-5-7-5-11.5c0-4.5,1.7-8.4,5-11.6C645.3,281.5,649.2,279.9,653.9,279.9L653.9,279.9z"/>
	<path d="M868.6,284.8l-2.8,1.8c-1.3-2.3-3.1-3.4-5.4-3.4c-1.4,0-2.6,0.5-3.7,1.4c-1,0.9-1.6,2.1-1.6,3.5c0,1.2,0.6,2.2,1.7,3.1
		c0.7,0.5,1.7,1.1,3.3,1.8l2.1,0.9c2.5,1.1,4.3,2.2,5.3,3.2c1.5,1.5,2.3,3.4,2.3,5.6c0,2.7-1,5-2.9,6.9c-1.9,1.9-4.3,2.8-7,2.8
		c-2.5,0-4.6-0.7-6.4-2.2c-1.8-1.5-2.9-3.5-3.4-5.9l3.4-1c0.2,1.6,0.9,3,2.1,4.2c1.2,1.1,2.6,1.7,4.2,1.7c1.7,0,3.2-0.6,4.5-1.8
		c1.3-1.2,1.9-2.6,1.9-4.4c0-1.6-0.6-3-1.8-4c-0.8-0.7-2.1-1.4-4-2.3l-1.9-0.8c-2.2-0.9-3.8-1.9-4.8-2.9c-1.4-1.4-2-3.1-2-5.1
		c0-2.4,0.9-4.3,2.7-5.9c1.7-1.4,3.7-2.2,6.1-2.2C864.2,279.9,866.9,281.5,868.6,284.8L868.6,284.8z"/>
	<polygon points="801.9,312.5 801.9,280.9 819.3,280.9 819.3,284.2 805.5,284.2 805.5,293.6 818.3,293.6 818.3,296.9 805.5,296.9 
		805.5,309.3 819.3,309.3 819.3,312.5 801.9,312.5 	"/>
	<polygon points="262.2,280.9 262.2,309.3 271,309.3 271,312.5 258.7,312.5 258.7,280.9 262.2,280.9 	"/>
	<polygon points="601.5,284.2 601.5,312.5 598,312.5 598,284.2 590.3,284.2 590.3,280.9 609.2,280.9 609.2,284.2 601.5,284.2 	"/>
	<path d="M489.9,284.2v11.4h1.1c2.4,0,4.3-0.3,5.5-1c1.7-0.9,2.5-2.4,2.5-4.7c0-2.4-0.8-4-2.4-4.8c-1.1-0.6-3-0.9-5.6-0.9H489.9
		L489.9,284.2z M489.9,298.6v13.9h-3.5v-31.7h4.6c7.7,0,11.6,2.9,11.6,8.7c0,2.4-0.7,4.5-2.1,6.1c-1.4,1.6-3.4,2.5-5.8,2.7
		l10.1,14.2h-4.3l-9.6-13.9H489.9L489.9,298.6z"/>
	<path d="M752.4,284.2v11.4h1.1c2.4,0,4.3-0.3,5.5-1c1.7-0.9,2.5-2.4,2.5-4.7c0-2.4-0.8-4-2.4-4.8c-1.2-0.6-3-0.9-5.6-0.9H752.4
		L752.4,284.2z M752.4,298.6v13.9h-3.5v-31.7h4.6c7.7,0,11.6,2.9,11.6,8.7c0,2.4-0.7,4.5-2.1,6.1c-1.4,1.6-3.4,2.5-5.8,2.7
		l10.1,14.2h-4.3l-9.6-13.9H752.4L752.4,298.6z"/>
	<polygon points="936.4,93.5 865.2,185.3 865.2,254.5 840.9,254.5 840.9,185.3 769.7,93.5 797.7,93.5 853,165.2 908.4,93.5 
		936.4,93.5 	"/>
</g>
</svg>
